<svg width="105" height="100" viewBox="0 0 105 100" fill="none" xmlns="http://www.w3.org/2000/svg">
<path d="M94.8714 75C97.7318 75 100.143 76 102.106 78C104.068 80 105.032 82.3333 104.999 85L64.9372 100L30.014 90V45H39.7426L76.0129 58.45C78.6072 59.4833 79.9043 61.35 79.9043 64.05C79.9043 65.6167 79.3389 66.9833 78.2081 68.15C77.0772 69.3167 75.647 69.9333 73.9175 70H59.9482L51.2174 66.65L49.571 71.35L59.9482 75H94.8714ZM74.9153 6.15C78.4409 2.05 82.931 0 88.3857 0C92.9091 0 96.734 1.66667 99.8605 5C102.987 8.33333 104.65 12.1667 104.849 16.5C104.849 19.9333 103.186 24.0333 99.8605 28.8C96.5344 33.5667 93.2583 37.55 90.0321 40.75C86.8058 43.95 81.7669 48.7 74.9153 55C67.9972 48.7 62.9084 43.95 59.6489 40.75C56.3894 37.55 53.1132 33.5667 49.8205 28.8C46.5277 24.0333 44.9146 19.9333 44.9811 16.5C44.9811 11.9667 46.5942 8.13333 49.8205 5C53.0467 1.86667 56.9382 0.2 61.4948 0C66.8164 0 71.2899 2.05 74.9153 6.15ZM0 45H20.0359V100H0V45Z" fill="url(#paint0_linear_237_494)"/>
<defs>
<linearGradient id="paint0_linear_237_494" x1="105" y1="50" x2="0" y2="50" gradientUnits="userSpaceOnUse">
<stop stop-color="#63C5E9"/>
<stop offset="1" stop-color="#3A70DD" stop-opacity="0.35"/>
</linearGradient>
</defs>
</svg>
