<svg width="22" height="22" viewBox="0 0 22 22" fill="none" xmlns="http://www.w3.org/2000/svg">
<circle cx="11" cy="11" r="11" fill="#2157C3"/>
<path d="M4.63636 6.77611L5.45091 6L16.0909 16.2178L15.2827 17L13.3227 15.1178C12.5909 15.35 11.8145 15.4722 11 15.4722C7.81818 15.4722 5.10091 13.5717 4 10.8889C4.43909 9.81333 5.13909 8.86611 6.03 8.11444L4.63636 6.77611ZM11 9.05556C11.5063 9.05556 11.9919 9.24871 12.3499 9.59253C12.708 9.93634 12.9091 10.4027 12.9091 10.8889C12.9094 11.097 12.8728 11.3037 12.8009 11.5L10.3636 9.15944C10.5681 9.09038 10.7833 9.05525 11 9.05556ZM11 6.30556C14.1818 6.30556 16.8991 8.20611 18 10.8889C17.4803 12.1557 16.5978 13.2553 15.4545 14.0606L14.5509 13.1867C15.431 12.6021 16.1407 11.8111 16.6127 10.8889C16.0983 9.88047 15.2996 9.03089 14.3074 8.43672C13.3152 7.84255 12.1693 7.52763 11 7.52778C10.3064 7.52778 9.62545 7.63778 8.98909 7.83333L8.00909 6.89833C8.92545 6.51944 9.93727 6.30556 11 6.30556ZM5.38727 10.8889C5.90167 11.8973 6.70038 12.7469 7.69259 13.3411C8.68479 13.9352 9.83069 14.2501 11 14.25C11.4391 14.25 11.8718 14.2072 12.2727 14.1217L10.8218 12.7222C10.379 12.6766 9.9658 12.4869 9.65089 12.1845C9.33599 11.8821 9.13837 11.4852 9.09091 11.06L6.92727 8.97611C6.29727 9.49556 5.76909 10.1433 5.38727 10.8889Z" fill="white"/>
</svg>
