<svg width="63" height="39" viewBox="0 0 63 39" fill="none" xmlns="http://www.w3.org/2000/svg">
<path d="M56.5 3.9C57.6046 3.9 58.5 4.79543 58.5 5.9V33.1C58.5 34.2046 57.6046 35.1 56.5 35.1H5.9C4.79543 35.1 3.9 34.2046 3.9 33.1V5.9C3.9 4.79543 4.79543 3.9 5.9 3.9H56.5ZM62.4 2C62.4 0.89543 61.5046 0 60.4 0H2C0.89543 0 0 0.895431 0 2V37C0 38.1046 0.89543 39 2 39H60.4C61.5046 39 62.4 38.1046 62.4 37V2Z" fill="#3A70DD"/>
<path d="M31.1998 7.8C37.8298 7.8 42.8998 12.87 42.8998 19.5C42.8998 26.13 37.8298 31.2 31.1998 31.2H48.7498C49.8268 31.2 50.6998 30.327 50.6998 29.25C50.6998 28.173 51.5728 27.3 52.6498 27.3C53.7268 27.3 54.5998 26.427 54.5998 25.35V13.65C54.5998 12.573 53.7268 11.7 52.6498 11.7C51.5728 11.7 50.6998 10.827 50.6998 9.75C50.6998 8.67305 49.8268 7.8 48.7498 7.8H31.1998ZM19.4998 19.5C19.4998 12.87 24.5698 7.8 31.1998 7.8H13.6498C12.5728 7.8 11.6998 8.67305 11.6998 9.75C11.6998 10.827 10.8268 11.7 9.7498 11.7C8.67285 11.7 7.7998 12.573 7.7998 13.65V25.35C7.7998 26.427 8.67285 27.3 9.7498 27.3C10.8268 27.3 11.6998 28.173 11.6998 29.25C11.6998 30.327 12.5728 31.2 13.6498 31.2H31.1998C24.5698 31.2 19.4998 26.13 19.4998 19.5Z" fill="#3A70DD"/>
</svg>
