<svg width="48" height="25" viewBox="0 0 48 25" fill="none" xmlns="http://www.w3.org/2000/svg">
<path d="M24.1998 0.800003C30.8298 0.800003 35.8998 5.87 35.8998 12.5C35.8998 19.13 30.8298 24.2 24.1998 24.2H41.7498C42.8268 24.2 43.6998 23.327 43.6998 22.25C43.6998 21.173 44.5728 20.3 45.6498 20.3C46.7268 20.3 47.5998 19.427 47.5998 18.35V6.65C47.5998 5.57305 46.7268 4.7 45.6498 4.7C44.5728 4.7 43.6998 3.82696 43.6998 2.75C43.6998 1.67305 42.8268 0.800003 41.7498 0.800003H24.1998ZM12.4998 12.5C12.4998 5.87 17.5698 0.800003 24.1998 0.800003H6.64981C5.57285 0.800003 4.6998 1.67305 4.6998 2.75C4.6998 3.82696 3.82676 4.7 2.7498 4.7C1.67285 4.7 0.799805 5.57305 0.799805 6.65V18.35C0.799805 19.427 1.67285 20.3 2.7498 20.3C3.82676 20.3 4.6998 21.173 4.6998 22.25C4.6998 23.327 5.57285 24.2 6.64981 24.2H24.1998C17.5698 24.2 12.4998 19.13 12.4998 12.5Z" fill="#3A70DD"/>
</svg>
