<svg width="50" height="42" viewBox="0 0 50 42" fill="none" xmlns="http://www.w3.org/2000/svg">
<path d="M49.4247 35.9696C49.4247 35.9696 46.6901 26.6942 45.1026 22.5705C43.1062 17.3871 38.5737 7.21469 37.5735 6.74636C37.4306 6.67889 37.2917 6.63126 37.1568 6.59554L30.989 4.33722H18.9632L12.8113 6.59157C12.6685 6.62729 12.5216 6.67492 12.3708 6.74636C11.3706 7.21866 6.85 17.3553 4.84172 22.5705C3.25415 26.6942 0.519557 35.9696 0.519557 35.9696C0.384613 36.3943 0.54734 36.8547 0.924388 37.0928C1.74596 37.6048 3.43672 38.4105 6.35785 38.7598C6.79444 38.8114 7.21117 38.5692 7.38184 38.1644C7.8462 37.0491 13.5892 23.2889 14.1687 21.7291L12.6486 39.6131C12.6169 40.0258 12.8907 40.395 13.2916 40.4862C14.6966 40.8077 18.6774 41.4388 24.984 41.4388C31.2867 41.4388 35.2675 40.8038 36.6765 40.4862C37.0774 40.395 37.3512 40.0258 37.3195 39.6131L35.8034 21.7648C36.3788 23.3127 42.1139 37.0452 42.5743 38.1604C42.6567 38.3578 42.8014 38.5228 42.9863 38.6302C43.1711 38.7377 43.3861 38.7818 43.5983 38.7558C46.5155 38.4065 48.2102 37.6008 49.0318 37.0888C49.4009 36.8547 49.5636 36.3943 49.4247 35.9696Z" fill="#004F7C"/>
<path d="M21.6211 22.3442C22.2195 22.3442 22.7046 21.8591 22.7046 21.2606C22.7046 20.6622 22.2195 20.1771 21.6211 20.1771C21.0227 20.1771 20.5376 20.6622 20.5376 21.2606C20.5376 21.8591 21.0227 22.3442 21.6211 22.3442Z" fill="#00273D"/>
<path d="M27.2339 22.3442C27.8323 22.3442 28.3174 21.8591 28.3174 21.2606C28.3174 20.6622 27.8323 20.1771 27.2339 20.1771C26.6355 20.1771 26.1504 20.6622 26.1504 21.2606C26.1504 21.8591 26.6355 22.3442 27.2339 22.3442Z" fill="#00273D"/>
<path d="M21.6211 28.3012C22.2195 28.3012 22.7046 27.8161 22.7046 27.2177C22.7046 26.6193 22.2195 26.1342 21.6211 26.1342C21.0227 26.1342 20.5376 26.6193 20.5376 27.2177C20.5376 27.8161 21.0227 28.3012 21.6211 28.3012Z" fill="#00273D"/>
<path d="M27.2339 28.3013C27.8323 28.3013 28.3174 27.8161 28.3174 27.2177C28.3174 26.6193 27.8323 26.1342 27.2339 26.1342C26.6355 26.1342 26.1504 26.6193 26.1504 27.2177C26.1504 27.8161 26.6355 28.3013 27.2339 28.3013Z" fill="#00273D"/>
<path d="M21.6211 34.2543C22.2195 34.2543 22.7046 33.7691 22.7046 33.1707C22.7046 32.5723 22.2195 32.0872 21.6211 32.0872C21.0227 32.0872 20.5376 32.5723 20.5376 33.1707C20.5376 33.7691 21.0227 34.2543 21.6211 34.2543Z" fill="#00273D"/>
<path d="M27.2339 34.2543C27.8323 34.2543 28.3174 33.7691 28.3174 33.1707C28.3174 32.5723 27.8323 32.0872 27.2339 32.0872C26.6355 32.0872 26.1504 32.5723 26.1504 33.1707C26.1504 33.7691 26.6355 34.2543 27.2339 34.2543Z" fill="#00273D"/>
<path d="M21.6211 21.8639C22.2195 21.8639 22.7046 21.3788 22.7046 20.7804C22.7046 20.182 22.2195 19.6969 21.6211 19.6969C21.0227 19.6969 20.5376 20.182 20.5376 20.7804C20.5376 21.3788 21.0227 21.8639 21.6211 21.8639Z" fill="#B5840D"/>
<path d="M27.2339 21.8639C27.8323 21.8639 28.3174 21.3788 28.3174 20.7804C28.3174 20.182 27.8323 19.6969 27.2339 19.6969C26.6355 19.6969 26.1504 20.182 26.1504 20.7804C26.1504 21.3788 26.6355 21.8639 27.2339 21.8639Z" fill="#B5840D"/>
<path d="M21.6211 27.8177C22.2195 27.8177 22.7046 27.3326 22.7046 26.7342C22.7046 26.1358 22.2195 25.6507 21.6211 25.6507C21.0227 25.6507 20.5376 26.1358 20.5376 26.7342C20.5376 27.3326 21.0227 27.8177 21.6211 27.8177Z" fill="#B5840D"/>
<path d="M27.2339 27.8177C27.8323 27.8177 28.3174 27.3326 28.3174 26.7342C28.3174 26.1358 27.8323 25.6507 27.2339 25.6507C26.6355 25.6507 26.1504 26.1358 26.1504 26.7342C26.1504 27.3326 26.6355 27.8177 27.2339 27.8177Z" fill="#B5840D"/>
<path d="M21.6211 33.7709C22.2195 33.7709 22.7046 33.2857 22.7046 32.6873C22.7046 32.0889 22.2195 31.6038 21.6211 31.6038C21.0227 31.6038 20.5376 32.0889 20.5376 32.6873C20.5376 33.2857 21.0227 33.7709 21.6211 33.7709Z" fill="#B5840D"/>
<path d="M27.2339 33.7709C27.8323 33.7709 28.3174 33.2857 28.3174 32.6873C28.3174 32.0889 27.8323 31.6038 27.2339 31.6038C26.6355 31.6038 26.1504 32.0889 26.1504 32.6873C26.1504 33.2857 26.6355 33.7709 27.2339 33.7709Z" fill="#B5840D"/>
<path opacity="0.5" d="M18.3838 24.3362L17.455 23.9234C17.1336 23.7805 16.7605 23.9551 16.6652 24.2965L14.5934 31.7263C14.518 31.9962 14.649 32.2859 14.907 32.405L15.7484 32.7939C16.0699 32.9408 16.4469 32.7701 16.5422 32.4328L18.7013 25.0267C18.7846 24.745 18.6457 24.4513 18.3838 24.3362ZM31.8345 24.3362L32.7632 23.9234C33.0847 23.7805 33.4578 23.9551 33.553 24.2965L35.6248 31.7263C35.7002 31.9962 35.5692 32.2859 35.3113 32.405L34.4698 32.7939C34.1484 32.9408 33.7713 32.7701 33.6761 32.4328L31.517 25.0267C31.4336 24.745 31.5725 24.4513 31.8345 24.3362Z" fill="#2686C6"/>
<path d="M30.0601 14.5498C29.6275 13.5854 29.4528 13.0099 29.5481 12.6487C29.7465 11.8827 30.4689 11.3866 31.1555 10.9937C31.1158 10.9659 28.0478 0.821289 28.0478 0.821289H21.9238L18.2485 11.5731C20.8402 11.6604 25.7855 14.6927 27.6986 16.7685C28.6114 17.7567 29.3258 18.9077 30.0323 20.0547C30.2268 18.8998 30.9491 16.5303 30.0601 14.5498Z" fill="#00273D"/>
<path d="M21.1576 0.800334L17.7563 3.91991C17.7563 3.91991 17.3911 6.83708 17.4348 8.59531C17.4824 10.5004 17.7086 11.5442 18.9708 11.0322C20.2329 10.5202 22.0149 9.66296 22.4594 9.4407C22.904 9.21844 23.3445 9.06365 23.0667 9.77409C22.7889 10.4845 22.519 11.8895 22.4872 12.0126C22.3443 12.5444 22.257 12.9334 23.7176 13.2509C25.1782 13.5684 29.3932 14.6956 29.3932 14.6956C29.3932 14.6956 23.6779 8.1627 22.9198 6.86486C21.9911 5.27729 21.9395 3.11422 21.9911 1.94735C22.0003 1.72413 22.0955 1.51313 22.2568 1.35851C22.4181 1.2039 22.6329 1.11766 22.8563 1.11785H26.9761C27.4325 1.11785 27.8096 1.47108 27.8413 1.92354C27.9167 3.07453 27.9921 5.15028 27.6587 6.01154C27.3492 6.8093 26.4839 7.49195 25.8013 7.99204C25.3091 8.34924 25.3925 8.80964 25.6663 9.09937L27.3849 11.1037C27.3849 11.1037 27.7897 9.21447 28.0318 9.12318C28.2739 9.0319 29.5678 10.298 30.687 10.7028C31.4491 10.9806 31.8063 10.1591 31.8857 9.6828C31.965 9.2105 32.3897 5.38842 32.2945 4.73354C32.1952 4.08264 31.8063 3.4873 31.3737 3.20948C31.0442 2.99912 29.3614 1.50283 28.5597 0.788427C28.2858 0.542353 27.7699 0.40741 27.4008 0.40741H22.5666C21.9475 0.411379 21.4355 0.550291 21.1576 0.800334Z" fill="#004F7C"/>
<path d="M32.3396 4.07889C31.9308 3.48752 31.4902 3.27716 30.9385 2.82867C31.2798 3.23747 31.5894 3.68596 31.7323 4.19796C31.9943 5.23782 31.5894 8.86939 31.4664 9.61158C31.3989 10.0085 31.0774 10.3617 30.6924 10.2347C30.3154 10.1077 30.1646 10.0164 28.6246 8.76223C28.0293 8.27802 27.6443 8.27802 27.3943 9.01227C27.172 9.6592 26.918 10.5522 26.918 10.5522L27.6999 11.469C27.6999 11.469 28.0729 9.92512 28.1841 9.48854C29.9701 10.8539 30.6924 11.1714 31.1727 11.1118C32.1014 11.0007 32.2562 10.0164 32.3038 9.74652C32.4745 8.50425 32.5023 7.23419 32.6134 5.98397C32.6531 5.43229 32.7166 4.62263 32.3396 4.07889ZM28.5254 14.1362C27.3665 13.5488 25.1756 13.1757 23.7865 12.8383C23.3142 12.7232 22.8379 12.6081 22.9014 12.2549C22.9689 11.9771 23.1912 10.9769 23.342 10.5363C23.4928 10.0958 23.846 9.21072 23.3618 8.86145C22.9967 8.59553 22.5125 8.85748 22.5125 8.85748C22.4887 8.87336 20.3613 9.96481 19.1508 10.4649C18.6428 10.6753 18.2221 10.5721 18.1109 9.81796C17.7379 7.28578 17.6902 4.99968 18.9444 2.85249C18.6467 3.15413 18.099 3.5153 17.7895 3.80106C17.1465 4.3845 16.9123 8.11132 17.3568 10.5363C17.5156 11.4055 18.1467 11.8659 19.3175 11.3103C20.4367 10.7784 22.6514 9.7624 22.6514 9.7624C22.6514 9.7624 22.1315 11.6516 22.0521 12.3343C21.9767 13.0169 22.3021 13.386 23.6079 13.6639C24.4573 13.8464 26.3147 14.0647 27.4181 14.5013C28.7477 15.0292 29.1247 15.1959 30.0614 16.3707C29.7637 15.3308 29.478 14.6164 28.5254 14.1362Z" fill="#2686C6"/>
<path d="M29.471 41.3188L27.1413 41.422C27.1413 41.422 27.7962 41.0331 28.8678 40.8307C29.864 40.6441 29.7012 39.8781 29.7012 39.2074V18.5491C29.7012 15.2628 28.5502 15.0763 27.5501 14.5405L28.5304 14.1317C28.6257 14.1833 30.5506 14.727 30.5506 18.5491V39.6201C30.5506 40.3703 30.6181 41.3188 29.471 41.3188ZM22.1047 4.27682C22.1047 4.27682 21.561 3.16155 21.43 2.14154C21.2831 0.970703 21.6919 0.549996 22.6564 0.411084C23.7002 0.260264 26.2919 0.327736 26.927 0.35155C27.4667 0.367426 28.3161 0.411084 28.5145 1.30012C28.709 2.15741 27.9113 4.28079 27.9113 4.28079C27.9113 4.28079 27.8954 2.09788 27.8517 1.93118C27.8081 1.76449 27.7247 1.37553 26.927 1.25647C25.2044 0.998485 24.3273 1.12549 23.1247 1.08977C22.0293 1.05802 22.0174 1.63351 22.0055 2.51462C21.9975 3.39175 22.1047 4.27682 22.1047 4.27682Z" fill="#2686C6"/>
<path d="M14.7593 17.525C14.7276 15.0285 13.7194 10.2499 12.4891 8.07496C12.4576 8.01951 12.4404 7.95712 12.4391 7.89339C12.4377 7.82966 12.4521 7.76658 12.4811 7.70982C12.628 7.43199 13.0209 7.43199 13.1678 7.70982C14.799 10.8215 15.6642 15.612 15.0808 18.1759C15.0848 18.1759 14.7752 18.676 14.7593 17.525ZM35.1834 17.525C35.2152 15.0285 36.2233 10.2499 37.4537 8.07496C37.5172 7.95986 37.5211 7.82492 37.4616 7.70982C37.4289 7.64699 37.3796 7.59433 37.3191 7.55759C37.2586 7.52084 37.1891 7.5014 37.1183 7.5014C37.0475 7.5014 36.978 7.52084 36.9175 7.55759C36.8569 7.59433 36.8076 7.64699 36.775 7.70982C35.1437 10.8215 34.2785 15.612 34.8619 18.1759C34.858 18.1759 35.1676 18.676 35.1834 17.525Z" fill="#00273D"/>
</svg>
