<svg width="28" height="52" viewBox="0 0 28 52" fill="none" xmlns="http://www.w3.org/2000/svg">
<path d="M27.3903 1.07317C27.3475 0.721602 27.0645 0.438637 26.6786 0.477223C24.6893 0.670154 18.8156 0.841648 14.1981 0.880234C9.58067 0.91882 3.707 0.665867 1.71767 0.477223C1.33609 0.438637 1.04884 0.721602 1.00597 1.07317C0.67584 3.76991 0.82161 12.992 0.82161 12.992C0.82161 12.992 0.834473 25.7426 0.834473 30.3301C0.834473 34.9175 1.68337 50.4549 1.68337 50.4549C4.5216 52.4485 9.75645 51.6554 11.167 50.3906C11.167 50.3906 11.8315 36.7868 12.0073 31.5177C12.2217 25.0095 13.2764 16.1775 13.3964 15.5944C13.495 15.0928 13.868 14.947 14.1981 14.947C14.5283 14.947 14.9013 15.0928 14.9999 15.5944C15.1156 16.1775 16.1703 25.0095 16.389 31.5177C16.5648 36.7868 17.2293 50.3906 17.2293 50.3906C18.6398 51.6554 23.8747 52.4485 26.7129 50.4549C26.7129 50.4549 27.5618 34.9218 27.5618 30.3301C27.5618 25.7426 27.5747 12.992 27.5747 12.992C27.5747 12.992 27.7205 3.7742 27.3903 1.07317Z" fill="#174DA1"/>
<path d="M25.9439 9.06491C25.4123 9.09492 24.229 8.92343 22.9599 7.73154C21.5022 6.36388 21.6051 4.3574 21.6051 4.3574L21.9481 4.25021C21.9524 4.26736 22.2611 6.15809 23.6116 7.42285C25.1121 8.82911 26.4112 8.64046 26.4284 8.63618C26.4284 8.63618 26.7542 8.58901 26.9686 8.48612C27.1829 8.38322 26.9128 9.01346 25.9439 9.06491Z" fill="url(#paint0_radial_306_206)"/>
<path d="M2.47474 9.06491C3.00637 9.09492 4.18968 8.92343 5.45874 7.73154C6.91644 6.36388 6.81354 4.3574 6.81354 4.3574L6.47055 4.25021C6.46626 4.26736 6.15757 6.15809 4.80706 7.42285C3.30648 8.82911 2.00742 8.64046 1.99027 8.63618C1.99027 8.63618 1.66443 8.58901 1.45006 8.48612C1.23141 8.38751 1.5058 9.01346 2.47474 9.06491Z" fill="url(#paint1_radial_306_206)"/>
<path d="M13.9205 4.77299C6.61485 4.77299 0.856934 3.60683 0.856934 3.60683L0.869795 3.12236C0.869795 3.12236 6.72203 3.9584 13.9205 3.9584C21.1404 3.9584 26.7954 3.08806 27.52 2.97659L27.5371 3.4825C27.4814 3.48679 21.2133 4.77299 13.9205 4.77299Z" fill="#10356E"/>
<path d="M27.2777 7.85986L27.5349 3.371L21.9785 4.11271C21.9785 4.11271 22.2658 6.48791 23.9721 7.73981C24.358 8.02278 24.7867 8.25001 25.1983 8.43008C26.1158 8.82451 27.1962 8.85024 27.2777 7.85986Z" fill="url(#paint2_radial_306_206)"/>
<path d="M1.11711 7.85986L0.859863 3.371L6.41627 4.11271C6.41627 4.11271 6.12902 6.48791 4.42265 7.73981C4.03679 8.02278 3.60806 8.25001 3.19647 8.43008C2.27898 8.82451 1.19428 8.85024 1.11711 7.85986Z" fill="url(#paint3_radial_306_206)"/>
<path d="M16.1648 1.94345C16.2377 1.94774 16.3106 1.95632 16.3663 1.99919C16.4135 2.03349 16.4392 2.08922 16.4649 2.14496C16.5121 2.25643 16.5421 2.3679 16.5592 2.48795C16.5635 2.51796 16.5678 2.54797 16.5507 2.5737C16.5335 2.59942 16.4992 2.60799 16.4692 2.61657C15.8432 2.7752 15.1959 2.86952 14.5528 2.89525C14.4713 2.89953 14.3855 2.89953 14.3212 2.85237C14.2612 2.80521 14.2355 2.72804 14.2226 2.65516C14.0254 1.57046 15.496 1.89629 16.1648 1.94345Z" fill="#10356E"/>
<path d="M12.2647 10.6556C12.1833 9.84529 12.0889 2.45818 12.1318 1.94799C12.1918 1.21057 12.3462 0.936175 12.7963 0.880439C13.7953 0.760393 14.2755 0.794692 14.7599 0.78183C14.9572 0.794692 15.7675 0.854715 15.9433 0.837565C12.4834 1.17627 12.8306 1.22771 12.8692 3.64578C12.9035 5.66512 12.9035 10.5827 12.9293 12.1133C12.9378 12.4091 12.4148 12.169 12.2647 10.6556Z" fill="url(#paint4_linear_306_206)"/>
<path d="M14.3355 3.43993C14.8517 3.43993 15.2702 3.02148 15.2702 2.50529C15.2702 1.9891 14.8517 1.57065 14.3355 1.57065C13.8193 1.57065 13.4009 1.9891 13.4009 2.50529C13.4009 3.02148 13.8193 3.43993 14.3355 3.43993Z" fill="#94D1E0"/>
<path d="M10.8394 22.999C10.3378 29.2328 7.94545 34.1289 5.50166 33.9317C3.05787 33.7345 1.48012 28.5211 1.98603 22.283C2.48765 16.0492 4.87999 11.153 7.32378 11.3502C9.76758 11.5475 11.341 16.7652 10.8394 22.999Z" fill="url(#paint5_radial_306_206)"/>
<path d="M17.5536 22.999C18.0553 29.2328 20.4476 34.1289 22.8914 33.9317C25.3352 33.7345 26.9129 28.5211 26.407 22.283C25.9054 16.0492 23.5131 11.153 21.0693 11.3502C18.6255 11.5517 17.052 16.7652 17.5536 22.999Z" fill="url(#paint6_radial_306_206)"/>
<path d="M17.1387 12.9916C17.1387 12.9916 18.442 11.7826 20.5257 11.1138C22.7337 10.4063 24.3028 10.5607 24.3028 10.5607C24.3028 10.5607 22.8623 11.5897 21.0059 12.2928C19.1494 13.0045 17.1387 12.9916 17.1387 12.9916Z" fill="url(#paint7_linear_306_206)"/>
<path d="M8.18721 11.796C6.38223 10.9814 5.28467 9.71661 5.28467 9.71661C5.28467 9.71661 6.52371 9.8238 8.35441 10.6941C10.1851 11.5645 11.3341 12.8292 11.5185 12.9964C11.3941 12.8978 9.99218 12.6106 8.18721 11.796Z" fill="url(#paint8_linear_306_206)"/>
<path d="M5.50346 14.0384C3.42409 13.3567 2.31367 10.9515 2.22363 10.8914C4.65456 12.5464 7.4199 13.5067 10.3182 13.9912C10.3182 13.9912 7.96011 14.8444 5.50346 14.0384Z" fill="url(#paint9_linear_306_206)"/>
<path d="M13.8408 12.1647C13.6178 12.2891 13.4078 12.2205 13.6779 11.9632C13.9522 11.706 14.7497 10.8142 14.9383 10.5527C15.1313 10.2912 15.1656 9.8367 15.1656 9.27077V4.28458H15.813V9.26648C15.813 9.96532 15.933 10.647 15.3285 11.11C14.8612 11.4659 14.0637 12.0361 13.8408 12.1647ZM6.08496 48.8645C4.02274 48.8645 1.5618 48.1785 1.5618 48.1785L1.55322 47.4111C1.55322 47.4111 4.0699 47.8912 5.94347 47.8655C8.19433 47.8312 11.2941 47.3125 11.2941 47.3125L11.2855 48.0284C11.2812 48.0327 8.18147 48.8645 6.08496 48.8645Z" fill="#10356E"/>
<path d="M11.5777 50.8232C11.5777 51.0161 11.4491 51.1833 11.2604 51.2262C10.4458 51.4234 8.1821 51.9208 6.0813 51.9208C4.01908 51.9208 2.1155 51.4406 1.39522 51.2391C1.308 51.2148 1.23107 51.1627 1.17613 51.0908C1.12119 51.0188 1.09124 50.9309 1.09082 50.8404V48.3966C1.09082 48.1136 1.27946 47.8949 1.54528 47.9807C2.34273 48.2422 4.02766 48.5981 5.90123 48.5723C8.15209 48.538 9.77271 48.3065 11.2861 47.8821C11.5348 47.8135 11.5734 48.045 11.5734 48.3022V50.8232H11.5777Z" fill="#64B5F6"/>
<path d="M22.2907 48.8642C24.3529 48.8642 26.8138 48.1782 26.8138 48.1782L26.8224 47.4108C26.8224 47.4108 24.3057 47.891 22.4322 47.8652C20.1813 47.8309 17.0815 47.3122 17.0815 47.3122L17.0901 48.0282C17.0901 48.0324 20.1899 48.8642 22.2907 48.8642Z" fill="#10356E"/>
<path d="M16.7969 50.8232C16.7969 51.0161 16.9255 51.1833 17.1141 51.2262C17.9287 51.4234 20.1925 51.9208 22.2933 51.9208C24.3555 51.9208 26.2591 51.4406 26.9793 51.2391C27.1594 51.1876 27.2837 51.0247 27.2837 50.8404V48.3966C27.2837 48.1136 27.0951 47.8949 26.8293 47.9807C26.0318 48.2422 24.3469 48.5981 22.4733 48.5723C20.2225 48.538 18.6019 48.3065 17.0884 47.8821C16.8397 47.8135 16.8012 48.045 16.8012 48.3022V50.8232H16.7969Z" fill="#64B5F6"/>
<defs>
<radialGradient id="paint0_radial_306_206" cx="0" cy="0" r="1" gradientUnits="userSpaceOnUse" gradientTransform="translate(23.6712 7.93434) scale(4.1463)">
<stop stop-color="#1976D2"/>
<stop offset="0.949" stop-color="#1976D2" stop-opacity="0.051"/>
<stop offset="1" stop-color="#1976D2" stop-opacity="0"/>
</radialGradient>
<radialGradient id="paint1_radial_306_206" cx="0" cy="0" r="1" gradientUnits="userSpaceOnUse" gradientTransform="translate(4.74661 7.93434) rotate(180) scale(4.1463)">
<stop stop-color="#1976D2"/>
<stop offset="0.949" stop-color="#1976D2" stop-opacity="0.051"/>
<stop offset="1" stop-color="#1976D2" stop-opacity="0"/>
</radialGradient>
<radialGradient id="paint2_radial_306_206" cx="0" cy="0" r="1" gradientUnits="userSpaceOnUse" gradientTransform="translate(26.7195 4.14244) rotate(-19.2503) scale(4.80533 8.02986)">
<stop offset="0.5" stop-color="#10356E" stop-opacity="0"/>
<stop offset="0.91" stop-color="#10356E"/>
</radialGradient>
<radialGradient id="paint3_radial_306_206" cx="0" cy="0" r="1" gradientUnits="userSpaceOnUse" gradientTransform="translate(1.67291 4.14177) rotate(-160.75) scale(4.80533 8.02986)">
<stop offset="0.5" stop-color="#10356E" stop-opacity="0"/>
<stop offset="0.91" stop-color="#10356E"/>
</radialGradient>
<linearGradient id="paint4_linear_306_206" x1="14.0195" y1="2.61424" x2="14.1983" y2="10.7992" gradientUnits="userSpaceOnUse">
<stop stop-color="#1976D2"/>
<stop offset="0.949" stop-color="#1976D2" stop-opacity="0.051"/>
<stop offset="1" stop-color="#1976D2" stop-opacity="0"/>
</linearGradient>
<radialGradient id="paint5_radial_306_206" cx="0" cy="0" r="1" gradientUnits="userSpaceOnUse" gradientTransform="translate(6.41194 22.6446) rotate(4.60859) scale(4.5384 10.9538)">
<stop stop-color="#BBDEFB" stop-opacity="0.3"/>
<stop offset="1" stop-color="#BBDEFB" stop-opacity="0"/>
</radialGradient>
<radialGradient id="paint6_radial_306_206" cx="0" cy="0" r="1" gradientUnits="userSpaceOnUse" gradientTransform="translate(21.9814 22.6436) rotate(175.391) scale(4.5384 10.9538)">
<stop stop-color="#BBDEFB" stop-opacity="0.3"/>
<stop offset="1" stop-color="#BBDEFB" stop-opacity="0"/>
</radialGradient>
<linearGradient id="paint7_linear_306_206" x1="24.1215" y1="10.4668" x2="18.4064" y2="12.5702" gradientUnits="userSpaceOnUse">
<stop stop-color="#10356E" stop-opacity="0"/>
<stop offset="1" stop-color="#10356E"/>
</linearGradient>
<linearGradient id="paint8_linear_306_206" x1="4.7636" y1="9.52103" x2="9.97883" y2="12.0856" gradientUnits="userSpaceOnUse">
<stop stop-color="#10356E" stop-opacity="0"/>
<stop offset="1" stop-color="#10356E"/>
</linearGradient>
<linearGradient id="paint9_linear_306_206" x1="1.16501" y1="11.6721" x2="8.72689" y2="13.8993" gradientUnits="userSpaceOnUse">
<stop stop-color="#10356E" stop-opacity="0"/>
<stop offset="1" stop-color="#10356E"/>
</linearGradient>
</defs>
</svg>
