<svg width="48" height="41" viewBox="0 0 48 41" fill="none" xmlns="http://www.w3.org/2000/svg">
<path d="M13.8492 6.19579L11.6396 7.60039V40.4401H36.5725V7.60039L34.2143 6.2615L31.5801 5.55427L31.7123 5.05075C31.8197 4.64341 31.7755 4.21091 31.5878 3.83375C31.4002 3.4566 31.0818 3.16048 30.6921 3.00053L27.8517 1.83413C25.8109 0.995803 23.5585 0.819112 21.4119 1.32897L19.7461 1.72489C18.9121 1.92311 18.1334 2.30633 17.4675 2.8462C16.8017 3.38607 16.2658 4.06877 15.8995 4.84376L15.5931 5.49267L13.8492 6.19579ZM44.6412 20.1753L36.5725 17.7111V7.60039L47.1054 12.5296L44.6412 20.1753Z" fill="#61B2E4"/>
<path d="M31.3434 3.70118C31.3434 3.70118 33.4552 4.59404 28.2327 12.8467L25.5968 8.60414L29.2973 4.62361L30.5729 3.16069M17.4764 3.15659L19.125 5.41545L22.832 9.40172L20.1953 13.6443C14.3165 6.37238 16.3297 4.37637 16.3297 4.37637" fill="#92D3F5"/>
<path d="M3.57017 20.1753L11.6388 17.7111V7.60129L1.10596 12.5297L3.57017 20.1753Z" fill="#61B2E4"/>
<path d="M34.2135 6.95951L36.5717 7.60103M36.5717 7.60103V40.4399H11.6388V7.60103M36.5717 7.60103V17.7109L44.6404 20.1751L47.1046 12.5295L36.5717 7.60103ZM11.6388 7.60103L13.8484 6.8938M11.6388 7.60103V17.7109L3.57017 20.1751L1.10596 12.5295L11.6388 7.60103Z" stroke="black" stroke-width="0.5" stroke-linecap="round" stroke-linejoin="round"/>
<path d="M29.2982 4.62347L25.5969 8.60399L28.2328 12.8465C34.1124 5.57466 32.0991 3.57864 32.0991 3.57864C23.5212 -3.28912 15.9257 3.57864 15.9257 3.57864C15.9257 3.57864 13.9116 5.57466 19.7912 12.8465L22.4279 8.60399L18.7209 4.61772" stroke="black" stroke-width="0.5" stroke-linecap="round" stroke-linejoin="round"/>
<path d="M24.0132 12.946C24.4001 12.946 24.7138 12.6323 24.7138 12.2453C24.7138 11.8583 24.4001 11.5446 24.0132 11.5446C23.6262 11.5446 23.3125 11.8583 23.3125 12.2453C23.3125 12.6323 23.6262 12.946 24.0132 12.946Z" fill="black"/>
<path d="M24.0132 15.6292C24.4001 15.6292 24.7138 15.3155 24.7138 14.9285C24.7138 14.5415 24.4001 14.2278 24.0132 14.2278C23.6262 14.2278 23.3125 14.5415 23.3125 14.9285C23.3125 15.3155 23.6262 15.6292 24.0132 15.6292Z" fill="black"/>
<path d="M24.0132 18.3124C24.4001 18.3124 24.7138 17.9987 24.7138 17.6118C24.7138 17.2248 24.4001 16.9111 24.0132 16.9111C23.6262 16.9111 23.3125 17.2248 23.3125 17.6118C23.3125 17.9987 23.6262 18.3124 24.0132 18.3124Z" fill="black"/>
</svg>
