<svg width="30" height="33" viewBox="0 0 30 33" fill="none" xmlns="http://www.w3.org/2000/svg">
<path fill-rule="evenodd" clip-rule="evenodd" d="M8.33333 3.3H21.6667V0H25V3.3H26.6667C27.5507 3.3 28.3986 3.64768 29.0237 4.26655C29.6488 4.88542 30 5.72479 30 6.6V29.7C30 30.5752 29.6488 31.4146 29.0237 32.0335C28.3986 32.6523 27.5507 33 26.6667 33H3.33333C2.44928 33 1.60143 32.6523 0.976311 32.0335C0.351189 31.4146 0 30.5752 0 29.7V6.6C0 5.72479 0.351189 4.88542 0.976311 4.26655C1.60143 3.64768 2.44928 3.3 3.33333 3.3H5V0H8.33333V3.3ZM3.33333 9.9V29.7H26.6667V9.9H3.33333ZM6.66667 14.85H10V18.15H6.66667V14.85ZM13.3333 14.85H16.6667V18.15H13.3333V14.85ZM20 14.85H23.3333V18.15H20V14.85ZM20 21.45H23.3333V24.75H20V21.45ZM13.3333 21.45H16.6667V24.75H13.3333V21.45ZM6.66667 21.45H10V24.75H6.66667V21.45Z" fill="#3A70DD"/>
</svg>
