<svg width="32" height="10" viewBox="0 0 32 10" fill="none" xmlns="http://www.w3.org/2000/svg">
<path d="M29.6293 9.85567L29.3293 8.40593H25.9773L25.444 9.84536L22.7573 9.85052C24.4844 5.83935 25.7662 2.86813 26.6027 0.936856C26.8213 0.431701 27.2093 0.17397 27.7813 0.177836C28.2187 0.181272 28.9324 0.181701 29.9227 0.179124L32 9.8518L29.6293 9.85567ZM26.7307 6.4201H28.892L28.0853 2.78608L26.7307 6.4201ZM9.416 0.176546L12.1173 0.179124L7.94133 9.85696L5.20667 9.85438C4.519 7.29809 3.83989 4.73966 3.16933 2.17912C3.036 1.66881 2.772 1.31186 2.264 1.14304C1.80978 0.992698 1.05511 0.760309 0 0.445876V0.179124H4.316C5.06267 0.179124 5.49867 0.528351 5.63867 1.24485C5.78 1.96306 6.13556 3.79038 6.70533 6.7268L9.416 0.176546ZM15.8293 0.179124L13.6947 9.85567L11.1227 9.8518L13.2533 0.176546L15.8293 0.179124ZM21.0427 0C21.812 0 22.7813 0.231958 23.3387 0.445876L22.888 2.45103C22.384 2.25516 21.5547 1.99098 20.8573 2C19.844 2.01675 19.2173 2.42784 19.2173 2.82217C19.2173 3.46392 20.3053 3.78737 21.4253 4.4884C22.7027 5.28737 22.872 6.00515 22.856 6.78608C22.8387 8.40335 21.4253 10 18.444 10C17.084 9.98067 16.5933 9.87113 15.484 9.48969L15.9533 7.39691C17.0827 7.85309 17.5613 7.99871 18.5267 7.99871C19.4107 7.99871 20.1693 7.65335 20.176 7.05155C20.1813 6.62371 19.9093 6.41108 18.9173 5.88273C17.9253 5.35438 16.5333 4.62113 16.552 3.1482C16.5747 1.26418 18.4213 0 21.0427 0Z" fill="white"/>
</svg>
