<svg width="22" height="20" viewBox="0 0 22 20" fill="none" xmlns="http://www.w3.org/2000/svg">
<path fill-rule="evenodd" clip-rule="evenodd" d="M19.75 7.96001L20.532 8.58601C20.6877 8.70732 20.8849 8.76239 21.0809 8.73926C21.2769 8.71613 21.4559 8.61668 21.5791 8.46246C21.7022 8.30824 21.7596 8.11169 21.7388 7.91543C21.7181 7.71916 21.6207 7.539 21.468 7.41401L13.343 0.914006C12.678 0.38187 11.8517 0.0919495 11 0.0919495C10.1483 0.0919495 9.32199 0.38187 8.657 0.914006L0.532 7.41401C0.376583 7.53826 0.276891 7.71916 0.254856 7.91692C0.23282 8.11468 0.290246 8.31309 0.4145 8.46851C0.538754 8.62392 0.719658 8.72361 0.917415 8.74565C1.11517 8.76769 1.31358 8.71026 1.469 8.58601L2.25 7.96001V18.25H1C0.801088 18.25 0.610322 18.329 0.46967 18.4697C0.329018 18.6103 0.25 18.8011 0.25 19C0.25 19.1989 0.329018 19.3897 0.46967 19.5303C0.610322 19.671 0.801088 19.75 1 19.75H21C21.1989 19.75 21.3897 19.671 21.5303 19.5303C21.671 19.3897 21.75 19.1989 21.75 19C21.75 18.8011 21.671 18.6103 21.5303 18.4697C21.3897 18.329 21.1989 18.25 21 18.25H19.75V7.96001ZM8.25 6.50001C8.25 5.77066 8.53973 5.07119 9.05546 4.55546C9.57118 4.03974 10.2707 3.75001 11 3.75001C11.7293 3.75001 12.4288 4.03974 12.9445 4.55546C13.4603 5.07119 13.75 5.77066 13.75 6.50001C13.75 7.22935 13.4603 7.92883 12.9445 8.44455C12.4288 8.96028 11.7293 9.25001 11 9.25001C10.2707 9.25001 9.57118 8.96028 9.05546 8.44455C8.53973 7.92883 8.25 7.22935 8.25 6.50001ZM11.05 10.25C11.714 10.25 12.287 10.25 12.746 10.312C13.238 10.378 13.709 10.527 14.091 10.909C14.473 11.291 14.622 11.762 14.688 12.254C14.746 12.684 14.75 13.214 14.75 13.827V18.25H13.25V14C13.25 13.272 13.248 12.8 13.202 12.454C13.158 12.129 13.088 12.027 13.03 11.97C12.972 11.913 12.871 11.842 12.546 11.798C12.199 11.752 11.728 11.75 11 11.75C10.272 11.75 9.8 11.752 9.454 11.798C9.129 11.842 9.027 11.913 8.97 11.97C8.913 12.027 8.842 12.129 8.798 12.454C8.752 12.801 8.75 13.272 8.75 14V18.25H7.25V13.95C7.25 13.286 7.25 12.713 7.312 12.254C7.378 11.762 7.527 11.291 7.909 10.909C8.291 10.527 8.763 10.378 9.254 10.312C9.713 10.25 10.286 10.25 10.951 10.25H11.05Z" fill="#3A70DD"/>
</svg>
