<svg width="25" height="20" viewBox="0 0 25 20" fill="none" xmlns="http://www.w3.org/2000/svg">
<path d="M24.1667 18.3333H22.5V6.66667C22.721 6.66667 22.933 6.57887 23.0893 6.42259C23.2455 6.26631 23.3333 6.05435 23.3333 5.83333C23.3333 5.61232 23.2455 5.40036 23.0893 5.24408C22.933 5.0878 22.721 5 22.5 5H17.5V1.66667C17.721 1.66667 17.933 1.57887 18.0893 1.42259C18.2455 1.26631 18.3333 1.05435 18.3333 0.833333C18.3333 0.61232 18.2455 0.400358 18.0893 0.244078C17.933 0.0877975 17.721 0 17.5 0H2.5C2.27899 0 2.06702 0.0877975 1.91074 0.244078C1.75446 0.400358 1.66667 0.61232 1.66667 0.833333C1.66667 1.05435 1.75446 1.26631 1.91074 1.42259C2.06702 1.57887 2.27899 1.66667 2.5 1.66667V18.3333H0.833333C0.61232 18.3333 0.400358 18.4211 0.244078 18.5774C0.0877973 18.7337 0 18.9457 0 19.1667C0 19.3877 0.0877973 19.5996 0.244078 19.7559C0.400358 19.9122 0.61232 20 0.833333 20H24.1667C24.3877 20 24.5996 19.9122 24.7559 19.7559C24.9122 19.5996 25 19.3877 25 19.1667C25 18.9457 24.9122 18.7337 24.7559 18.5774C24.5996 18.4211 24.3877 18.3333 24.1667 18.3333ZM6.66667 4.16667H8.33333C8.55435 4.16667 8.76631 4.25446 8.92259 4.41074C9.07887 4.56702 9.16667 4.77899 9.16667 5C9.16667 5.22101 9.07887 5.43297 8.92259 5.58926C8.76631 5.74554 8.55435 5.83333 8.33333 5.83333H6.66667C6.44565 5.83333 6.23369 5.74554 6.07741 5.58926C5.92113 5.43297 5.83333 5.22101 5.83333 5C5.83333 4.77899 5.92113 4.56702 6.07741 4.41074C6.23369 4.25446 6.44565 4.16667 6.66667 4.16667ZM5.83333 9.16667C5.83333 8.94565 5.92113 8.73369 6.07741 8.57741C6.23369 8.42113 6.44565 8.33333 6.66667 8.33333H8.33333C8.55435 8.33333 8.76631 8.42113 8.92259 8.57741C9.07887 8.73369 9.16667 8.94565 9.16667 9.16667C9.16667 9.38768 9.07887 9.59964 8.92259 9.75592C8.76631 9.9122 8.55435 10 8.33333 10H6.66667C6.44565 10 6.23369 9.9122 6.07741 9.75592C5.92113 9.59964 5.83333 9.38768 5.83333 9.16667ZM12.5 18.3333H7.5V13.3333H12.5V18.3333ZM13.3333 10H11.6667C11.4457 10 11.2337 9.9122 11.0774 9.75592C10.9211 9.59964 10.8333 9.38768 10.8333 9.16667C10.8333 8.94565 10.9211 8.73369 11.0774 8.57741C11.2337 8.42113 11.4457 8.33333 11.6667 8.33333H13.3333C13.5543 8.33333 13.7663 8.42113 13.9226 8.57741C14.0789 8.73369 14.1667 8.94565 14.1667 9.16667C14.1667 9.38768 14.0789 9.59964 13.9226 9.75592C13.7663 9.9122 13.5543 10 13.3333 10ZM13.3333 5.83333H11.6667C11.4457 5.83333 11.2337 5.74554 11.0774 5.58926C10.9211 5.43297 10.8333 5.22101 10.8333 5C10.8333 4.77899 10.9211 4.56702 11.0774 4.41074C11.2337 4.25446 11.4457 4.16667 11.6667 4.16667H13.3333C13.5543 4.16667 13.7663 4.25446 13.9226 4.41074C14.0789 4.56702 14.1667 4.77899 14.1667 5C14.1667 5.22101 14.0789 5.43297 13.9226 5.58926C13.7663 5.74554 13.5543 5.83333 13.3333 5.83333ZM20.8333 18.3333H17.5V6.66667H20.8333V18.3333Z" fill="#3A70DD"/>
</svg>
