<svg width="373" height="330" viewBox="0 0 373 330" fill="none" xmlns="http://www.w3.org/2000/svg">
<g clip-path="url(#clip0_1_189)">
<path d="M356.352 329.274L355.855 329.088C355.746 329.047 344.887 324.887 339.8 315.453C334.713 306.019 337.204 294.661 337.23 294.547L337.347 294.03L337.844 294.216C337.953 294.257 348.811 298.418 353.898 307.851C358.985 317.285 356.494 328.644 356.469 328.757L356.352 329.274ZM340.615 315.014C344.916 322.99 353.497 327.079 355.671 328.012C356.084 325.682 357.381 316.259 353.084 308.29C348.787 300.323 340.203 296.228 338.028 295.292C337.614 297.624 336.318 307.046 340.615 315.014Z" fill="#3A70DD"/>
<path d="M343.688 312.144C352.829 317.644 356.35 328.568 356.35 328.568C356.35 328.568 345.049 330.575 335.908 325.076C326.766 319.576 323.246 308.651 323.246 308.651C323.246 308.651 334.546 306.644 343.688 312.144Z" fill="#3A70DD"/>
<path d="M196.516 176.703C196.959 176.018 197.542 175.434 198.226 174.99C198.911 174.545 199.681 174.251 200.488 174.125C201.294 173.999 202.117 174.046 202.905 174.26C203.692 174.475 204.425 174.854 205.055 175.372C205.254 175.537 205.441 175.715 205.615 175.906L228.381 172.592L229.648 155.473C229.745 154.159 230.36 152.938 231.357 152.078C232.354 151.218 233.653 150.79 234.966 150.887C236.279 150.984 237.5 151.598 238.36 152.596C239.22 153.593 239.649 154.891 239.552 156.204C239.55 156.235 239.547 156.265 239.545 156.296L237.325 180.317L237.315 180.371C237.026 181.294 236.447 182.1 235.664 182.668C234.881 183.236 233.936 183.537 232.968 183.526L206.191 183.063C206.087 183.222 205.975 183.375 205.855 183.522C205.337 184.153 204.692 184.667 203.961 185.031C203.231 185.394 202.432 185.6 201.616 185.633C200.801 185.666 199.988 185.527 199.23 185.224C198.472 184.921 197.787 184.462 197.219 183.876C197.104 183.758 196.995 183.636 196.891 183.51C196.12 182.559 195.668 181.39 195.6 180.167C195.533 178.945 195.853 177.732 196.516 176.703Z" fill="#FFB7B7"/>
<path d="M242.414 322.665L235.92 322.665L232.832 297.62L242.415 297.621L242.414 322.665Z" fill="#FFB7B7"/>
<path d="M244.07 328.959L223.133 328.958V328.694C223.133 326.532 223.992 324.46 225.52 322.932C227.048 321.403 229.121 320.545 231.282 320.545H231.283L244.07 320.545L244.07 328.959Z" fill="#3A70DD"/>
<path d="M287.785 316.779L281.64 318.874L270.631 296.168L279.701 293.075L287.785 316.779Z" fill="#FFB7B7"/>
<path d="M291.385 322.201L271.569 328.959L271.484 328.709C270.786 326.663 270.929 324.424 271.882 322.485C272.836 320.545 274.52 319.063 276.565 318.365L276.566 318.365L288.669 314.237L291.385 322.201Z" fill="#3A70DD"/>
<path d="M249.564 103.684C249.564 103.684 243.101 101.55 238.946 110.087C234.792 118.625 228.329 128.016 228.329 128.016L232.022 128.87C232.022 128.87 232.945 122.893 235.253 122.04L234.33 129.723C234.33 129.723 262.028 138.687 274.491 128.87L274.03 125.881C274.03 125.881 275.876 126.308 275.876 128.87L277.261 127.589C277.261 127.589 275.876 125.028 271.722 121.613C268.995 119.371 268.058 115.107 267.736 112.441C267.48 110.184 266.512 108.067 264.972 106.397C262.211 103.438 257.18 100.293 249.564 103.684Z" fill="#2F2E41"/>
<path d="M251.946 133.512C258.465 133.512 263.75 128.228 263.75 121.709C263.75 115.19 258.465 109.905 251.946 109.905C245.427 109.905 240.142 115.19 240.142 121.709C240.142 128.228 245.427 133.512 251.946 133.512Z" fill="#FFB7B7"/>
<path d="M236.207 143.232L234.061 142.517C234.061 142.517 229.769 144.305 229.769 147.524C229.769 150.744 229.054 163.62 229.054 163.62L238.711 164.693L236.207 143.232Z" fill="#CBCBCB"/>
<path d="M274.619 213.589C273.729 212.591 273.227 211.308 273.203 209.971C273.18 208.634 273.637 207.333 274.492 206.305L268.467 155.849C268.408 154.659 268.823 153.495 269.622 152.611C270.421 151.727 271.538 151.196 272.727 151.135C273.917 151.074 275.083 151.487 275.968 152.284C276.853 153.081 277.386 154.197 277.45 155.386C277.451 155.403 277.452 155.419 277.452 155.436L282.842 205.946C283.038 206.142 283.218 206.353 283.381 206.576C283.813 207.174 284.123 207.851 284.294 208.569C284.465 209.287 284.492 210.031 284.375 210.759C284.258 211.488 283.999 212.186 283.612 212.814C283.225 213.442 282.718 213.988 282.121 214.421C282.059 214.465 281.996 214.509 281.932 214.551C281.24 215.009 280.455 215.308 279.633 215.427C278.812 215.546 277.974 215.481 277.181 215.238C276.19 214.938 275.303 214.367 274.619 213.589Z" fill="#FFB7B7"/>
<path d="M269.102 163.62L278.759 162.547C278.759 162.547 278.044 149.671 278.044 146.451C278.044 143.232 273.752 141.444 273.752 141.444L271.605 142.159L269.102 163.62Z" fill="#CBCBCB"/>
<path d="M237.638 181.487C237.638 181.487 229.411 196.528 229.411 214.77C229.411 233.012 228.696 316.711 228.696 316.711C228.696 316.711 239.427 321.719 245.865 315.638L251.588 222.997L274.123 313.85C274.123 313.85 284.853 315.996 289.861 312.419L280.203 249.108C280.203 249.108 276.269 189.732 265.538 185.439C254.807 181.147 237.638 181.487 237.638 181.487Z" fill="#3A70DD"/>
<path d="M239.191 121.784C243.37 118.759 246.752 115.276 248.99 111.133C248.99 111.133 256.658 119.653 261.344 120.079C266.031 120.505 261.77 109.855 261.77 109.855L253.25 107.725L245.155 108.577L238.765 112.837L239.191 121.784Z" fill="#2F2E41"/>
<path d="M263.75 139.297C263.75 139.297 264.09 139.115 243.72 139.857L235.194 142.205L234.061 142.517C234.061 142.517 235.134 163.978 237.996 167.913C240.857 171.847 240.142 173.993 239.427 174.351C238.711 174.709 236.923 173.993 237.996 175.782C239.069 177.57 240.5 176.497 239.069 177.57C237.638 178.643 236.923 182.578 236.923 182.578L268.399 186.87C268.399 186.87 269.473 172.92 272.334 165.766C275.196 158.613 275.911 155.751 275.911 155.751L273.765 141.444L263.75 139.297Z" fill="#CBCBCB"/>
<path d="M203.906 78.2856H202.096V28.6993C202.096 21.0877 199.072 13.788 193.69 8.40584C188.308 3.02368 181.008 1.22695e-05 173.397 1.07909e-10L68.3412 1.07912e-10C60.7296 -2.08578e-05 53.4299 3.02362 48.0477 8.40575C42.6655 13.7879 39.6419 21.0876 39.6418 28.6991V300.734C39.6418 308.345 42.6655 315.645 48.0476 321.027C53.4298 326.409 60.7295 329.433 68.341 329.433H173.396C177.165 329.433 180.897 328.691 184.379 327.249C187.861 325.806 191.025 323.692 193.69 321.027C196.355 318.362 198.469 315.199 199.911 311.717C201.353 308.235 202.096 304.503 202.096 300.734V113.582H203.906L203.906 78.2856Z" fill="black"/>
<path d="M195.988 28.9009V300.535C195.99 303.348 195.439 306.133 194.365 308.732C193.291 311.331 191.716 313.693 189.729 315.683C187.743 317.673 185.384 319.253 182.786 320.331C180.189 321.41 177.405 321.966 174.593 321.968H68.995C63.3147 321.972 57.8653 319.72 53.8459 315.706C49.8264 311.692 47.566 306.246 47.562 300.566V28.9009C47.56 26.0882 48.1121 23.3027 49.1866 20.7034C50.2611 18.1041 51.8371 15.7419 53.8245 13.7517C55.8119 11.7614 58.1719 10.1821 60.7697 9.10396C63.3675 8.02578 66.1522 7.46983 68.9648 7.46784H81.8003C81.1696 9.01391 80.9289 10.6914 81.0994 12.3524C81.2698 14.0134 81.8462 15.607 82.7776 16.9928C83.7091 18.3786 84.9671 19.514 86.4408 20.299C87.9145 21.084 89.5587 21.4945 91.2284 21.4944H151.415C153.085 21.4945 154.729 21.084 156.202 20.299C157.676 19.514 158.934 18.3786 159.866 16.9928C160.797 15.607 161.373 14.0134 161.544 12.3524C161.714 10.6914 161.474 9.01391 160.843 7.46784H174.555C180.234 7.46275 185.683 9.71395 189.702 13.7262C193.722 17.7385 195.983 23.1831 195.988 28.8624L195.988 28.9009Z" fill="white"/>
<path d="M195.988 69.0884V59.8361H181.984V8.79098C179.606 7.91261 177.09 7.46458 174.555 7.46785H172.732V59.8361H124.157V21.4944H114.905V59.8361H74.1948V7.4679H68.9951C67.635 7.46578 66.2779 7.59436 64.9424 7.85187V59.8361H47.562V69.0884H64.9424V90.4893L47.5622 100.523V111.21L64.9424 101.176V164.85H47.562V174.102H64.9424V266.163H47.562V275.415H64.9424V321.584C66.2779 321.842 67.635 321.971 68.9951 321.968H74.1948V275.415H114.905V321.968H124.157V275.415H172.732V321.968H174.555C177.09 321.972 179.606 321.524 181.984 320.645V275.415H195.988V266.163H181.984V225.915H195.863V216.663H181.984V174.102H195.988V164.85H181.984V108.411H195.988V99.1585H181.984V69.0884L195.988 69.0884ZM102.012 69.0884L74.195 85.1506L74.1947 69.0884H102.012ZM74.1947 95.8325L114.905 72.327V164.85H74.1947V95.8325ZM74.1947 266.163V174.102H114.905V266.163H74.1947ZM172.732 266.163H124.157V225.915H172.732V266.163ZM172.732 216.663H124.157V174.102H172.732V216.663ZM172.732 164.85H124.157V108.411H172.732V164.85ZM172.732 99.1585H124.157V69.0884H172.732V99.1585Z" fill="#E5E5E5"/>
<path d="M203.727 99.3296C203.727 128.712 150.527 194.166 150.527 194.166C150.527 194.166 97.3257 128.712 97.3257 99.3296C97.3257 85.2199 102.931 71.688 112.908 61.7109C122.885 51.7338 136.417 46.1287 150.527 46.1287C164.636 46.1287 178.168 51.7338 188.145 61.7109C198.122 71.688 203.727 85.2199 203.727 99.3296Z" fill="#3A70DD"/>
<path d="M181.985 97.0165C181.985 103.238 180.14 109.32 176.683 114.494C173.227 119.667 168.314 123.699 162.565 126.08C156.817 128.461 150.492 129.084 144.39 127.87C138.288 126.656 132.682 123.66 128.283 119.261C123.883 114.861 120.887 109.256 119.674 103.154C118.46 97.0514 119.083 90.7263 121.464 84.9781C123.845 79.2299 127.877 74.3169 133.05 70.8602C138.223 67.4036 144.305 65.5586 150.527 65.5586C154.656 65.5567 158.745 66.3681 162.561 67.9466C166.377 69.525 169.844 71.8395 172.765 74.758C175.686 77.6764 178.004 81.1417 179.586 84.9558C181.168 88.77 181.983 92.8584 181.985 96.9876V97.0165Z" fill="white"/>
<path d="M150.418 109.435C156.89 109.435 162.137 104.188 162.137 97.715C162.137 91.2424 156.89 85.9953 150.418 85.9953C143.945 85.9953 138.698 91.2424 138.698 97.715C138.698 104.188 143.945 109.435 150.418 109.435Z" fill="#3A70DD"/>
<path d="M167.427 124.482C162.374 127.695 156.511 129.4 150.524 129.4C144.537 129.399 138.675 127.691 133.623 124.477C134.674 120.805 136.892 117.575 139.942 115.276C142.991 112.976 146.707 111.733 150.527 111.733C154.346 111.734 158.062 112.978 161.111 115.279C164.16 117.579 166.377 120.81 167.427 124.482Z" fill="#3A70DD"/>
<path d="M150.527 232.563C158.447 232.563 164.868 226.142 164.868 218.222C164.868 210.302 158.447 203.881 150.527 203.881C142.606 203.881 136.186 210.302 136.186 218.222C136.186 226.142 142.606 232.563 150.527 232.563Z" fill="#3A70DD"/>
<path d="M372.406 329.713H0.462617C0.339923 329.713 0.222255 329.664 0.135497 329.577C0.0487398 329.49 0 329.373 0 329.25C0 329.127 0.0487398 329.01 0.135497 328.923C0.222255 328.836 0.339923 328.787 0.462617 328.787H372.406C372.529 328.787 372.647 328.836 372.733 328.923C372.82 329.01 372.869 329.127 372.869 329.25C372.869 329.373 372.82 329.49 372.733 329.577C372.647 329.664 372.529 329.713 372.406 329.713Z" fill="#CBCBCB"/>
</g>
<defs>
<clipPath id="clip0_1_189">
<rect width="372.869" height="329.713" fill="white"/>
</clipPath>
</defs>
</svg>
