<svg width="26" height="17" viewBox="0 0 26 17" fill="none" xmlns="http://www.w3.org/2000/svg">
<path fill-rule="evenodd" clip-rule="evenodd" d="M13 15.6635C11.7227 16.4841 10.2496 16.944 8.73486 16.9952C7.22015 17.0464 5.71962 16.687 4.39046 15.9545C3.0613 15.2221 1.95243 14.1437 1.18 12.8322C0.407563 11.5207 0 10.0243 0 8.5C0 6.97565 0.407563 5.47935 1.18 4.16784C1.95243 2.85633 3.0613 1.77788 4.39046 1.04546C5.71962 0.313038 7.22015 -0.0464008 8.73486 0.00479656C10.2496 0.0559939 11.7227 0.515943 13 1.33646C14.2773 0.515943 15.7504 0.0559939 17.2651 0.00479656C18.7799 -0.0464008 20.2804 0.313038 21.6095 1.04546C22.9387 1.77788 24.0476 2.85633 24.82 4.16784C25.5924 5.47935 26 6.97565 26 8.5C26 10.0243 25.5924 11.5207 24.82 12.8322C24.0476 14.1437 22.9387 15.2221 21.6095 15.9545C20.2804 16.687 18.7799 17.0464 17.2651 16.9952C15.7504 16.944 14.2773 16.4841 13 15.6635ZM2.59874 8.5C2.59843 7.50705 2.84793 6.53017 3.32402 5.66031C3.8001 4.79045 4.48729 4.05591 5.32159 3.52507C6.1559 2.99423 7.11019 2.68436 8.09561 2.6243C9.08103 2.56425 10.0655 2.75597 10.9575 3.18162C9.75191 4.68868 9.09619 6.56572 9.09953 8.5C9.09953 10.5138 9.79511 12.3616 10.9575 13.8184C10.0655 14.244 9.08103 14.4358 8.09561 14.3757C7.11019 14.3156 6.1559 14.0058 5.32159 13.4749C4.48729 12.9441 3.8001 12.2095 3.32402 11.3397C2.84793 10.4698 2.59843 9.49295 2.59874 8.5ZM15.0425 3.18162C15.9343 2.75657 16.9185 2.5653 17.9035 2.6256C18.8885 2.68591 19.8424 2.99582 20.6763 3.52652C21.5102 4.05722 22.1971 4.79145 22.6731 5.66091C23.1491 6.53036 23.3987 7.50679 23.3987 8.49935C23.3987 9.4919 23.1491 10.4683 22.6731 11.3378C22.1971 12.2072 21.5102 12.9415 20.6763 13.4722C19.8424 14.0029 18.8885 14.3128 17.9035 14.3731C16.9185 14.4334 15.9343 14.2421 15.0425 13.8171C16.2478 12.3104 16.9035 10.4338 16.9005 8.5C16.9005 6.48615 16.2049 4.63838 15.0425 3.18162ZM13 4.80054C13.8126 5.81138 14.3002 7.09815 14.3002 8.5C14.3024 9.84681 13.8433 11.1533 13 12.1995C12.1567 11.1533 11.6976 9.84681 11.6998 8.5C11.6998 7.09815 12.1874 5.81138 13 4.80054Z" fill="white"/>
</svg>
