<svg width="30" height="28" viewBox="0 0 30 28" fill="none" xmlns="http://www.w3.org/2000/svg">
<path d="M15.6617 4.23734C15.5707 4.15024 15.4495 4.10162 15.3235 4.10162C15.1975 4.10162 15.0763 4.15024 14.9853 4.23734L3.72565 14.9936C3.67784 15.0394 3.63979 15.0943 3.61383 15.1552C3.58786 15.2161 3.57451 15.2816 3.57459 15.3477L3.57275 25.4429C3.57275 25.962 3.77895 26.4598 4.14598 26.8268C4.51302 27.1938 5.01082 27.4 5.52989 27.4H11.4074C11.6669 27.4 11.9158 27.2969 12.0994 27.1134C12.2829 26.9299 12.386 26.681 12.386 26.4215V18.1036C12.386 17.9739 12.4375 17.8494 12.5293 17.7577C12.621 17.6659 12.7455 17.6144 12.8753 17.6144H17.7681C17.8979 17.6144 18.0223 17.6659 18.1141 17.7577C18.2058 17.8494 18.2574 17.9739 18.2574 18.1036V26.4215C18.2574 26.681 18.3605 26.9299 18.544 27.1134C18.7275 27.2969 18.9764 27.4 19.2359 27.4H25.111C25.6301 27.4 26.1279 27.1938 26.4949 26.8268C26.8619 26.4598 27.0681 25.962 27.0681 25.4429V15.3477C27.0682 15.2816 27.0549 15.2161 27.0289 15.1552C27.0029 15.0943 26.9649 15.0394 26.9171 14.9936L15.6617 4.23734Z" fill="#3A70DD"/>
<path d="M29.6888 12.9752L25.114 8.59854V1.95713C25.114 1.6976 25.0109 1.4487 24.8274 1.26518C24.6439 1.08167 24.3949 0.978567 24.1354 0.978567H21.1997C20.9402 0.978567 20.6913 1.08167 20.5078 1.26518C20.3242 1.4487 20.2211 1.6976 20.2211 1.95713V3.91427L16.6787 0.527203C16.3472 0.192044 15.8543 0 15.3216 0C14.7907 0 14.299 0.192044 13.9675 0.527815L0.958677 12.974C0.57826 13.3409 0.530554 13.9446 0.876722 14.3421C0.96365 14.4425 1.07009 14.5241 1.18956 14.582C1.30903 14.6399 1.43903 14.6729 1.57165 14.6789C1.70428 14.685 1.83675 14.664 1.961 14.6173C2.08526 14.5705 2.1987 14.4989 2.29442 14.4069L14.9852 2.28006C15.0763 2.19296 15.1974 2.14434 15.3234 2.14434C15.4494 2.14434 15.5706 2.19296 15.6616 2.28006L28.3537 14.4069C28.5406 14.5862 28.791 14.6841 29.05 14.679C29.309 14.674 29.5554 14.5665 29.7353 14.38C30.1108 13.9911 30.0796 13.3489 29.6888 12.9752Z" fill="#3A70DD"/>
</svg>
