<svg width="30" height="30" viewBox="0 0 30 30" fill="none" xmlns="http://www.w3.org/2000/svg">
<path d="M19.1742 0.00257542C18.9416 0.0118054 18.7173 0.0533403 18.4836 0.111028L2.67962 3.93224C0.810207 4.38681 -0.359338 6.25819 0.0998769 8.11457L2.31573 17.093C2.45001 17.6278 2.71145 18.1229 3.07817 18.5368C3.44488 18.9508 3.9062 19.2714 4.42347 19.4721V17.3088C4.42347 14.1279 7.03112 11.54 10.2363 11.54H24.8777L22.6979 2.63427C22.5051 1.86013 22.0492 1.17565 21.4071 0.696245C20.765 0.216842 19.9771 -0.0281516 19.1742 0.00257542ZM20.5902 4.97869L21.5353 8.90835L17.6117 9.84519L16.6305 5.9513L20.5902 4.97869ZM10.2363 13.8475C8.3111 13.8475 6.74861 15.3982 6.74861 17.3088V26.5388C6.74861 28.4494 8.3111 30 10.2363 30H26.5123C28.4375 30 30 28.4494 30 26.5388V17.3088C30 15.3982 28.4375 13.8475 26.5123 13.8475H10.2363ZM10.2363 15.6866H26.5123C27.4086 15.6866 28.1469 16.4192 28.1469 17.3088V18.4625H8.60175V17.3088C8.60175 16.4192 9.33998 15.6866 10.2363 15.6866ZM8.60175 21.9238H28.1469V26.5388C28.1469 27.4283 27.4086 28.1609 26.5123 28.1609H10.2363C9.80356 28.1585 9.38921 27.9868 9.0832 27.6831C8.77719 27.3794 8.60419 26.9682 8.60175 26.5388V21.9238Z" fill="#3A70DD"/>
</svg>
