<svg width="31" height="28" viewBox="0 0 31 28" fill="none" xmlns="http://www.w3.org/2000/svg">
<path d="M30.2929 26.4985L30.95 26.237C30.997 26.3552 31.0112 26.4838 30.9912 26.6093C30.9711 26.7349 30.9176 26.8527 30.8362 26.9503C30.7548 27.048 30.6486 27.1219 30.5287 27.1642C30.4089 27.2066 30.2798 27.2158 30.1551 27.1909L30.2929 26.4985ZM26.9677 25.8371L26.6327 25.2146L26.8567 25.0945L27.1055 25.1439L26.9677 25.8371ZM29.1454 23.6134L28.4883 23.8749L28.3731 23.5823L28.5116 23.3004L29.1454 23.6134ZM19.694 21.5523C19.694 23.8459 21.7099 25.7919 24.308 25.7919V27.2051C21.0287 27.2051 18.2808 24.7221 18.2808 21.5523H19.694ZM28.9214 21.5523C28.9214 19.2587 26.9048 17.3127 24.3073 17.3127V15.8995C27.5866 15.8995 30.3353 18.3825 30.3353 21.5523H28.9214ZM24.3073 17.3127C21.7099 17.3127 19.694 19.2587 19.694 21.5523H18.2808C18.2808 18.3825 21.028 15.8995 24.3073 15.8995V17.3127ZM24.308 25.7919C25.1595 25.7919 25.9523 25.5799 26.6327 25.2146L27.3026 26.4589C26.3817 26.9526 25.353 27.209 24.308 27.2051V25.7919ZM30.1551 27.1909L26.8299 26.5296L27.1055 25.1439L30.4307 25.8053L30.1551 27.1916V27.1909ZM28.5116 23.3004C28.7806 22.7569 28.9203 22.1588 28.9214 21.5523H30.3353C30.3353 22.4002 30.136 23.2043 29.7799 23.9265L28.5116 23.3004ZM29.8018 23.352L30.95 26.2377L29.6372 26.7592L28.4897 23.8742L29.8025 23.352H29.8018Z" fill="#3A70DD"/>
<path d="M2.38258 23.8493L0.903921 23.261C0.798267 23.5269 0.766292 23.8163 0.811364 24.0988C0.856437 24.3813 0.976889 24.6464 1.16002 24.8661C1.34316 25.0859 1.58219 25.2522 1.85192 25.3475C2.12165 25.4427 2.41209 25.4635 2.69262 25.4075L2.38258 23.8493ZM9.86491 22.3611L10.6185 20.9604L10.1145 20.6901L9.55487 20.8014L9.86491 22.3611ZM4.96467 17.3575L6.44333 17.9458L6.70249 17.2876L6.39086 16.6532L4.96467 17.3575ZM26.2319 12.7196C26.2319 17.8806 21.6958 22.2594 15.8495 22.2594V25.4393C23.2285 25.4393 29.4118 19.8522 29.4118 12.7196H26.2319ZM5.46868 12.7196C5.46868 7.55865 10.0064 3.17991 15.8511 3.17991V0C8.47211 0 2.28718 5.5871 2.28718 12.7196H5.46868ZM15.8511 3.17991C21.6958 3.17991 26.2319 7.55865 26.2319 12.7196H29.4118C29.4118 5.5871 23.2301 0 15.8511 0V3.17991ZM15.8495 22.2594C13.9336 22.2594 12.1497 21.7824 10.6185 20.9604L9.11127 23.7603C11.1835 24.8712 13.4983 25.4482 15.8495 25.4393V22.2594ZM2.69262 25.4075L10.175 23.9193L9.55487 20.8014L2.07254 22.2896L2.69262 25.4091V25.4075ZM6.39086 16.6532C5.78556 15.4301 5.47109 14.0843 5.46868 12.7196H2.28718C2.28718 14.6276 2.73555 16.437 3.53689 18.0619L6.39086 16.6532ZM3.4876 16.7693L0.903921 23.2626L3.85806 24.436L6.44015 17.9442L3.48601 16.7693H3.4876Z" fill="#3A70DD"/>
<path d="M10.3317 14.3094C11.2098 14.3094 11.9216 13.5976 11.9216 12.7195C11.9216 11.8414 11.2098 11.1295 10.3317 11.1295C9.45355 11.1295 8.7417 11.8414 8.7417 12.7195C8.7417 13.5976 9.45355 14.3094 10.3317 14.3094Z" fill="#3A70DD"/>
<path d="M15.8976 14.3094C16.7757 14.3094 17.4875 13.5976 17.4875 12.7195C17.4875 11.8414 16.7757 11.1295 15.8976 11.1295C15.0195 11.1295 14.3076 11.8414 14.3076 12.7195C14.3076 13.5976 15.0195 14.3094 15.8976 14.3094Z" fill="#3A70DD"/>
<path d="M21.462 14.3094C22.3401 14.3094 23.052 13.5976 23.052 12.7195C23.052 11.8414 22.3401 11.1295 21.462 11.1295C20.5839 11.1295 19.8721 11.8414 19.8721 12.7195C19.8721 13.5976 20.5839 14.3094 21.462 14.3094Z" fill="#3A70DD"/>
</svg>
