<svg width="30" height="30" viewBox="0 0 30 30" fill="none" xmlns="http://www.w3.org/2000/svg">
<path d="M15 30C12.95 30 11.0125 29.606 9.1875 28.818C7.3625 28.03 5.769 26.955 4.407 25.593C3.045 24.231 1.97 22.6375 1.182 20.8125C0.394 18.9875 0 17.05 0 15C0 12.925 0.394 10.9815 1.182 9.1695C1.97 7.3575 3.045 5.77 4.407 4.407C5.769 3.044 7.3625 1.969 9.1875 1.182C11.0125 0.395 12.95 0.001 15 0C17.075 0 19.019 0.394 20.832 1.182C22.645 1.97 24.232 3.045 25.593 4.407C26.954 5.769 28.029 7.3565 28.818 9.1695C29.607 10.9825 30.001 12.926 30 15C30 17.05 29.606 18.9875 28.818 20.8125C28.03 22.6375 26.955 24.2315 25.593 25.5945C24.231 26.9575 22.6435 28.0325 20.8305 28.8195C19.0175 29.6065 17.074 30 15 30ZM15 26.925C15.65 26.025 16.2125 25.0875 16.6875 24.1125C17.1625 23.1375 17.55 22.1 17.85 21H12.15C12.45 22.1 12.8375 23.1375 13.3125 24.1125C13.7875 25.0875 14.35 26.025 15 26.925ZM11.1 26.325C10.65 25.5 10.2565 24.6435 9.9195 23.7555C9.5825 22.8675 9.301 21.949 9.075 21H4.65C5.375 22.25 6.2815 23.3375 7.3695 24.2625C8.4575 25.1875 9.701 25.875 11.1 26.325ZM18.9 26.325C20.3 25.875 21.544 25.1875 22.632 24.2625C23.72 23.3375 24.626 22.25 25.35 21H20.925C20.7 21.95 20.419 22.869 20.082 23.757C19.745 24.645 19.351 25.501 18.9 26.325ZM3.375 18H8.475C8.4 17.5 8.344 17.0065 8.307 16.5195C8.27 16.0325 8.251 15.526 8.25 15C8.249 14.474 8.268 13.968 8.307 13.482C8.346 12.996 8.402 12.502 8.475 12H3.375C3.25 12.5 3.1565 12.994 3.0945 13.482C3.0325 13.97 3.001 14.476 3 15C2.999 15.524 3.0305 16.0305 3.0945 16.5195C3.1585 17.0085 3.252 17.502 3.375 18ZM11.475 18H18.525C18.6 17.5 18.6565 17.0065 18.6945 16.5195C18.7325 16.0325 18.751 15.526 18.75 15C18.749 14.474 18.73 13.968 18.693 13.482C18.656 12.996 18.6 12.502 18.525 12H11.475C11.4 12.5 11.344 12.994 11.307 13.482C11.27 13.97 11.251 14.476 11.25 15C11.249 15.524 11.268 16.0305 11.307 16.5195C11.346 17.0085 11.402 17.502 11.475 18ZM21.525 18H26.625C26.75 17.5 26.844 17.0065 26.907 16.5195C26.97 16.0325 27.001 15.526 27 15C26.999 14.474 26.968 13.968 26.907 13.482C26.846 12.996 26.752 12.502 26.625 12H21.525C21.6 12.5 21.6565 12.994 21.6945 13.482C21.7325 13.97 21.751 14.476 21.75 15C21.749 15.524 21.73 16.0305 21.693 16.5195C21.656 17.0085 21.6 17.502 21.525 18ZM20.925 9H25.35C24.625 7.75 23.719 6.6625 22.632 5.7375C21.545 4.8125 20.301 4.125 18.9 3.675C19.35 4.5 19.744 5.3565 20.082 6.2445C20.42 7.1325 20.701 8.051 20.925 9ZM12.15 9H17.85C17.55 7.9 17.1625 6.8625 16.6875 5.8875C16.2125 4.9125 15.65 3.975 15 3.075C14.35 3.975 13.7875 4.9125 13.3125 5.8875C12.8375 6.8625 12.45 7.9 12.15 9ZM4.65 9H9.075C9.3 8.05 9.5815 7.131 9.9195 6.243C10.2575 5.355 10.651 4.499 11.1 3.675C9.7 4.125 8.456 4.8125 7.368 5.7375C6.28 6.6625 5.374 7.75 4.65 9Z" fill="#3A70DD"/>
</svg>
