<svg width="30" height="41" viewBox="0 0 30 41" fill="none" xmlns="http://www.w3.org/2000/svg">
<path d="M15 0C12.6989 0 10.9268 1.85771 10.9268 4.07899C10.9268 4.43433 10.9263 4.78229 10.9256 5.11552C10.9221 6.76267 9.58315 8.09039 7.93599 8.09039H6.81984C6.77172 8.09039 6.72457 8.09361 6.67804 8.0989C6.62249 8.10521 6.56676 8.11042 6.51085 8.11042C5.92877 8.11042 5.4569 8.58228 5.4569 9.16436V10.0335C5.4569 11.0956 6.31791 11.9567 7.38002 11.9567H22.62C23.6821 11.9567 24.5431 11.0956 24.5431 10.0335V9.16436C24.5431 8.58228 24.0712 8.11042 23.4892 8.11042C23.4332 8.11042 23.3775 8.10521 23.322 8.0989C23.2754 8.09361 23.2283 8.09039 23.1802 8.09039H22.1723C20.4832 8.09039 19.1241 6.69687 19.1329 5.00778C19.1345 4.71586 19.1354 4.40948 19.1354 4.09149C19.1354 1.95198 17.3011 0 15 0ZM3 3.90132C1.34315 3.90132 0 5.24447 0 6.90132V38C0 39.6569 1.34315 41 3 41H27C28.6569 41 30 39.6569 30 38V6.90132C30 5.24447 28.6569 3.90132 27 3.90132H21.8395C21.0974 3.90132 20.4957 4.50296 20.4957 5.24513C20.4957 5.9873 21.0974 6.58894 21.8395 6.58894H24.2535C25.9103 6.58894 27.2535 7.93209 27.2535 9.58894V35.3074C27.2535 36.9642 25.9103 38.3074 24.2535 38.3074H5.74916C4.0923 38.3074 2.74916 36.9642 2.74916 35.3074V9.58894C2.74916 7.93209 4.0923 6.58894 5.74916 6.58894H8.1605C8.90267 6.58894 9.50431 5.9873 9.50431 5.24513C9.50431 4.50296 8.90267 3.90132 8.1605 3.90132H3ZM15 3.95134C15.7539 3.95134 16.363 4.53832 16.363 5.26512C16.363 5.99324 15.7539 6.58139 15 6.58139C14.2461 6.58139 13.6371 5.99321 13.6371 5.26512C13.6371 4.53836 14.2461 3.95134 15 3.95134ZM6.11503 14.5642C5.75155 14.5642 5.4569 14.8589 5.4569 15.2224C5.4569 15.5858 5.75156 15.8805 6.11503 15.8805H6.16171C6.52519 15.8805 6.81984 15.5858 6.81984 15.2224C6.81984 14.8589 6.52519 14.5642 6.16171 14.5642H6.11503ZM10.2064 14.5892C9.84293 14.5892 9.54827 14.8839 9.54827 15.2474C9.54827 15.6108 9.84293 15.9055 10.2064 15.9055H23.885C24.2484 15.9055 24.5431 15.6108 24.5431 15.2474C24.5431 14.8839 24.2484 14.5892 23.885 14.5892H10.2064ZM6.11503 19.5291C5.75155 19.5291 5.4569 19.8237 5.4569 20.1872C5.4569 20.5507 5.75156 20.8453 6.11503 20.8453H6.16171C6.52519 20.8453 6.81984 20.5507 6.81984 20.1872C6.81984 19.8237 6.52519 19.5291 6.16171 19.5291H6.11503ZM10.2077 19.5541C9.8435 19.5541 9.54827 19.8493 9.54827 20.2135C9.54827 20.5776 9.8435 20.8729 10.2077 20.8729H23.8837C24.2479 20.8729 24.5431 20.5776 24.5431 20.2135C24.5431 19.8493 24.2479 19.5541 23.8837 19.5541H10.2077ZM6.11503 24.4939C5.75155 24.4939 5.4569 24.7886 5.4569 25.152C5.4569 25.5155 5.75155 25.8102 6.11503 25.8102H6.16171C6.52519 25.8102 6.81984 25.5155 6.81984 25.152C6.81984 24.7886 6.52519 24.4939 6.16171 24.4939H6.11503ZM10.2064 24.5214C9.84293 24.5214 9.54827 24.8161 9.54827 25.1796C9.54827 25.543 9.84293 25.8377 10.2064 25.8377H23.885C24.2484 25.8377 24.5431 25.543 24.5431 25.1796C24.5431 24.8161 24.2484 24.5214 23.885 24.5214H10.2064ZM6.11503 29.4612C5.75155 29.4612 5.4569 29.7559 5.4569 30.1194C5.4569 30.4828 5.75155 30.7775 6.11503 30.7775H6.16171C6.52519 30.7775 6.81984 30.4828 6.81984 30.1194C6.81984 29.7559 6.52519 29.4612 6.16171 29.4612H6.11503ZM10.2064 29.4888C9.84293 29.4888 9.54827 29.7834 9.54827 30.1469C9.54827 30.5104 9.84293 30.805 10.2064 30.805H23.885C24.2484 30.805 24.5431 30.5104 24.5431 30.1469C24.5431 29.7834 24.2484 29.4888 23.885 29.4888H10.2064ZM6.11503 34.4261C5.75155 34.4261 5.4569 34.7208 5.4569 35.0842C5.4569 35.4477 5.75156 35.7424 6.11503 35.7424H6.16171C6.52519 35.7424 6.81984 35.4477 6.81984 35.0842C6.81984 34.7208 6.52519 34.4261 6.16171 34.4261H6.11503ZM10.2064 34.4536C9.84293 34.4536 9.54827 34.7483 9.54827 35.1117C9.54827 35.4752 9.84293 35.7699 10.2064 35.7699H23.885C24.2484 35.7699 24.5431 35.4752 24.5431 35.1117C24.5431 34.7483 24.2484 34.4536 23.885 34.4536H10.2064Z" fill="#3A70DD"/>
</svg>
