<svg width="30" height="30" viewBox="0 0 30 30" fill="none" xmlns="http://www.w3.org/2000/svg">
<path fill-rule="evenodd" clip-rule="evenodd" d="M21.5625 26.25C26.2312 26.25 30 24.375 30 21.5625V3.75C30 1.875 26.25 0 21.5625 0C16.875 0 13.125 1.875 13.125 3.75V10.3125C15.3187 11.2312 17.1938 12.7688 18.525 14.7188C19.4438 14.8987 20.4563 14.9981 21.5625 14.9981C24.0188 14.9981 26.0625 14.5087 27.525 13.7119C27.7326 13.5978 27.9347 13.4739 28.1306 13.3406V15.9281C28.1306 16.3687 27.78 17.0531 26.6269 17.6831C25.5094 18.2925 23.7956 18.7406 21.5644 18.7406C21.1181 18.7406 20.6931 18.7238 20.2894 18.69C20.4394 19.3063 20.5394 19.9375 20.5894 20.5837C20.9056 20.6012 21.2306 20.61 21.5644 20.61C24.0206 20.61 26.0644 20.1206 27.5269 19.3237C27.7345 19.2096 27.9366 19.0857 28.1325 18.9525V21.54C28.1325 21.9825 27.8531 22.6388 26.6494 23.2875C25.4644 23.925 23.6869 24.3525 21.5681 24.3525C21.1369 24.3525 20.7194 24.335 20.3156 24.3C20.1715 24.9232 19.9777 25.5339 19.7362 26.1262C20.3263 26.1925 20.9362 26.2256 21.5662 26.2256L21.5625 26.25ZM26.625 12.075C27.7781 11.445 28.1287 10.7606 28.1287 10.32V7.7325C27.935 7.865 27.7331 7.98875 27.5231 8.10375C26.0644 8.90063 24.0169 9.39 21.5606 9.39C19.1044 9.39 17.0606 8.90063 15.5981 8.10375C15.3905 7.98963 15.1884 7.86575 14.9925 7.7325V10.32C14.9925 10.7606 15.3431 11.445 16.4963 12.0731C17.6138 12.6825 19.3275 13.1306 21.5588 13.1306C23.79 13.1306 25.4963 12.6825 26.6213 12.0731L26.625 12.075ZM15 4.6875C15 4.1475 15.2344 3.62812 15.6712 3.31125C15.9094 3.13875 16.1681 2.96625 16.3725 2.8725C16.8844 2.63625 19.4475 1.87313 21.5662 1.87313C23.685 1.87313 25.5225 2.29875 26.76 2.8725C26.9925 2.97937 27.2494 3.14625 27.4763 3.31125C27.9094 3.62438 28.1325 4.14 28.1325 4.67438V4.68563C28.1325 5.12625 27.7819 5.81063 26.6287 6.44062C25.5112 7.05 23.7975 7.49813 21.5662 7.49813C19.335 7.49813 17.6288 7.04812 16.5038 6.44062C15.3506 5.8125 15 5.12625 15 4.6875Z" fill="#3A70DD"/>
<path fill-rule="evenodd" clip-rule="evenodd" d="M16.875 21.5625C16.875 26.2312 13.1062 30 8.4375 30C3.76875 30 0 26.2312 0 21.5625C0 16.8937 3.76875 13.125 8.4375 13.125C13.1062 13.125 16.875 16.8937 16.875 21.5625ZM15 21.5625C15 25.1812 12.0562 28.125 8.4375 28.125C4.81875 28.125 1.875 25.1812 1.875 21.5625C1.875 17.9437 4.81875 15 8.4375 15C12.0562 15 15 17.9437 15 21.5625Z" fill="#3A70DD"/>
</svg>
