<svg width="30" height="28" viewBox="0 0 30 28" fill="none" xmlns="http://www.w3.org/2000/svg">
<path d="M1.08254 4.58315H26.8158V1.07084C26.8158 0.912391 26.7807 0.755914 26.7129 0.612693C26.6451 0.469473 26.5464 0.343079 26.4239 0.242628C26.3013 0.142177 26.158 0.0701709 26.0043 0.0318044C25.8506 -0.00656214 25.6902 -0.0103333 25.5349 0.0207625L0.905858 4.06848C0.722463 4.10499 0.551826 4.18889 0.410924 4.31183C0.270023 4.43476 0.16377 4.59245 0.102739 4.76921C0.414669 4.6459 0.747127 4.58277 1.08254 4.58315ZM28.924 6.18939H1.08254C0.798544 6.18939 0.526175 6.30221 0.325356 6.50303C0.124538 6.70385 0.0117188 6.97621 0.0117188 7.26022V26.5351C0.0117188 26.8191 0.124538 27.0915 0.325356 27.2923C0.526175 27.4931 0.798544 27.6059 1.08254 27.6059H28.924C29.208 27.6059 29.4804 27.4931 29.6812 27.2923C29.882 27.0915 29.9948 26.8191 29.9948 26.5351V7.26022C29.9948 6.97621 29.882 6.70385 29.6812 6.50303C29.4804 6.30221 29.208 6.18939 28.924 6.18939ZM22.5325 19.0393C22.1089 19.0393 21.6949 18.9137 21.3427 18.6784C20.9905 18.443 20.716 18.1086 20.5539 17.7172C20.3918 17.3259 20.3494 16.8953 20.432 16.4798C20.5147 16.0644 20.7186 15.6828 21.0182 15.3833C21.3177 15.0838 21.6993 14.8798 22.1147 14.7971C22.5302 14.7145 22.9608 14.7569 23.3521 14.919C23.7434 15.0811 24.0779 15.3556 24.3132 15.7078C24.5486 16.06 24.6742 16.4741 24.6742 16.8976C24.6742 17.4657 24.4485 18.0104 24.0469 18.412C23.6453 18.8137 23.1005 19.0393 22.5325 19.0393Z" fill="#3A70DD"/>
<path d="M0 14.9902V5.38623C0 4.56102 0.38282 4.14943 1.03201 4.0477C3.38783 3.67759 8.2989 3.47882 8.2989 3.47882C8.2989 3.47882 7.7414 4.54965 6.4698 4.54965V6.18935C7.70794 6.18935 8.56661 7.76212 8.56661 7.76212L3.58057 13.4174L0 14.9902Z" fill="#3A70DD"/>
</svg>
