<svg width="16" height="18" viewBox="0 0 16 18" fill="none" xmlns="http://www.w3.org/2000/svg">
<path d="M13.0535 17.2789C12.0735 18.2289 11.0035 18.0789 9.97354 17.6289C8.88354 17.1689 7.88354 17.1489 6.73354 17.6289C5.29354 18.2489 4.53354 18.0689 3.67354 17.2789C-1.20646 12.2489 -0.486464 4.58887 5.05354 4.30887C6.40354 4.37887 7.34354 5.04887 8.13354 5.10887C9.31354 4.86887 10.4435 4.17887 11.7035 4.26887C13.2135 4.38887 14.3535 4.98887 15.1035 6.06887C11.9835 7.93887 12.7235 12.0489 15.5835 13.1989C15.0135 14.6989 14.2735 16.1889 13.0435 17.2889L13.0535 17.2789ZM8.03354 4.24887C7.88354 2.01887 9.69354 0.178871 11.7735 -0.00112915C12.0635 2.57887 9.43354 4.49887 8.03354 4.24887Z" fill="#28292C"/>
</svg>
