<svg width="24" height="24" viewBox="0 0 24 24" fill="none" xmlns="http://www.w3.org/2000/svg">
<path d="M3.63556 11.2929C3.44809 11.4804 3.34277 11.7347 3.34277 11.9999C3.34277 12.2651 3.44809 12.5194 3.63556 12.7069L9.29256 18.3639C9.38481 18.4594 9.49515 18.5356 9.61716 18.588C9.73916 18.6404 9.87038 18.668 10.0032 18.6692C10.1359 18.6703 10.2676 18.645 10.3905 18.5947C10.5134 18.5444 10.6251 18.4702 10.719 18.3763C10.8128 18.2824 10.8871 18.1708 10.9374 18.0479C10.9877 17.925 11.013 17.7933 11.0118 17.6605C11.0107 17.5277 10.9831 17.3965 10.9307 17.2745C10.8783 17.1525 10.8021 17.0421 10.7066 16.9499L6.75656 12.9999H19.9996C20.2648 12.9999 20.5191 12.8945 20.7067 12.707C20.8942 12.5195 20.9996 12.2651 20.9996 11.9999C20.9996 11.7347 20.8942 11.4803 20.7067 11.2928C20.5191 11.1053 20.2648 10.9999 19.9996 10.9999H6.75656L10.7066 7.0499C10.8887 6.8613 10.9895 6.6087 10.9872 6.3465C10.985 6.0843 10.8798 5.83349 10.6944 5.64808C10.509 5.46268 10.2582 5.3575 9.99596 5.35523C9.73376 5.35295 9.48116 5.45374 9.29256 5.6359L3.63556 11.2929Z" fill="#3A70DD"/>
</svg>
