<svg width="56" height="51" viewBox="0 0 56 51" fill="none" xmlns="http://www.w3.org/2000/svg">
<path d="M55 1H1M9.1 30.9444C10.7146 29.0198 13.8709 23.8503 14.5 17.3333M46.9 30.9444C45.2827 29.0198 42.1291 23.8503 41.5 17.3333M3.7 1V32.6458M3.7 32.6458V38.4306C3.7 43.8832 3.7 46.6108 5.2822 48.3068C6.8644 50 9.4078 50 14.5 50H17.2C17.2 46.0011 16.12 36.6012 11.8 30.9853M3.7 32.6458C6.7996 32.4362 9.4807 31.8564 11.8 30.9853M11.8 30.9853C22.276 27.0653 28 12.4742 28 1C28 12.4742 33.724 27.0653 44.2 30.9853M52.3 1V32.6458M52.3 32.6458V38.4306C52.3 43.8832 52.3 46.6108 50.7178 48.3068C49.1356 50 46.5922 50 41.5 50H38.8C38.8 46.0011 39.88 36.6012 44.2 30.9853M52.3 32.6458C49.2004 32.4362 46.5193 31.8564 44.2 30.9853" stroke="#3A70DD" stroke-width="2" stroke-linecap="round" stroke-linejoin="round"/>
</svg>
