<svg width="20" height="20" viewBox="0 0 20 20" fill="none" xmlns="http://www.w3.org/2000/svg">
<path fill-rule="evenodd" clip-rule="evenodd" d="M5.79007 13.2699L6.52007 9.85993C6.62635 9.38606 6.86574 8.95239 7.21007 8.60993L13.8801 1.99993C14.5565 1.3109 15.4748 0.912711 16.4401 0.889929C17.1681 0.879498 17.8701 1.1603 18.3901 1.66993C19.5263 3.01239 19.3796 5.01715 18.0601 6.17993L11.3901 12.8499C11.0476 13.1943 10.6139 13.4337 10.1401 13.5399L6.73007 14.2699H6.54007C6.29078 14.2795 6.05268 14.1661 5.903 13.9665C5.75332 13.7669 5.71111 13.5066 5.79007 13.2699ZM8.27007 9.67993C8.12996 9.81571 8.03263 9.98952 7.99007 10.1799L7.50007 12.5099L9.83007 12.0099C10.0205 11.9674 10.1943 11.87 10.3301 11.7299L17.0001 5.05993C17.7308 4.47495 17.8758 3.42041 17.3301 2.65993C17.0911 2.43164 16.7704 2.3091 16.4401 2.31993C15.8706 2.34279 15.3326 2.58673 14.9401 2.99993L8.27007 9.67993Z" fill="#0441BC"/>
<path d="M17.9101 8.92993C17.4981 8.93532 17.1655 9.26797 17.1601 9.67993V15.3699C17.1735 16.1742 16.8633 16.9502 16.2993 17.5236C15.7352 18.0971 14.9645 18.42 14.1601 18.4199H4.63008C2.96745 18.3873 1.63519 17.0329 1.63008 15.3699V5.87993C1.65738 4.21502 3.01494 2.87971 4.68008 2.87993H10.3701C10.7843 2.87993 11.1201 2.54414 11.1201 2.12993C11.1201 1.71572 10.7843 1.37993 10.3701 1.37993H4.63008C2.13658 1.37978 0.107479 3.38658 0.0800781 5.87993V15.3699C0.0800781 17.8828 2.11718 19.9199 4.63008 19.9199H14.1201C16.6291 19.9144 18.6601 17.8789 18.6601 15.3699V9.67993C18.6547 9.26797 18.322 8.93532 17.9101 8.92993Z" fill="#0441BC"/>
</svg>
