<svg width="47" height="51" viewBox="0 0 47 51" fill="none" xmlns="http://www.w3.org/2000/svg">
<path d="M0 8.00001C0 3.58173 3.58172 0 8 0H38.8774C43.2957 0 46.8774 3.58172 46.8774 8V38.1548C46.8774 44.7822 41.5048 50.1548 34.8774 50.1548H12C5.37258 50.1548 0 44.7823 0 38.1548V8.00001Z" fill="#E2E5F4"/>
<path d="M0 8C0 3.58172 3.58172 0 8 0H38.8774C43.2957 0 46.8774 3.58172 46.8774 8V8.95622C46.8774 8.95622 30.4608 13.1986 23.2489 13.1986C16.037 13.1986 0 8.95622 0 8.95622V8Z" fill="#E2E5F4"/>
<path d="M2.75732 12C2.75732 12 13.0979 15.9596 23.4385 15.9596C33.7791 15.9596 44.1198 12 44.1198 12" stroke="#3A70DD" stroke-width="1.5" stroke-linecap="round" stroke-linejoin="round"/>
<ellipse cx="17.464" cy="6.2685" rx="2.18302" ry="2.08978" fill="#3A70DD"/>
<ellipse cx="24.0131" cy="6.2685" rx="2.18302" ry="2.08978" fill="#3A70DD"/>
<ellipse cx="30.5622" cy="6.2685" rx="2.18302" ry="2.08978" fill="#3A70DD"/>
<path d="M32.8368 31.5215H14.2812C14.2812 31.5215 13.1897 40.9255 23.0133 40.9255C32.8368 40.9255 32.8368 31.5215 32.8368 31.5215Z" fill="#6497FF"/>
<path d="M23.0132 21C16.9704 21 12.0981 25.6954 12.0981 31.4113C12.0981 37.1517 16.9946 41.8219 23.0132 41.8219C29.1146 41.8219 33.9283 37.0986 33.9283 31.4113C33.9283 25.7093 29.0999 21 23.0132 21ZM23.0132 23.1925C26.2344 23.1925 29.1626 24.8859 30.6554 27.6124C31.0623 28.3548 31.3426 29.1364 31.4947 29.948C31.0145 30.0732 30.5689 30.246 30.1774 30.465C30.1718 30.4682 30.1661 30.4715 30.1603 30.4748C29.0915 31.061 27.2379 31.0587 26.1768 30.4656C24.4125 29.4787 21.6542 29.4733 19.8795 30.4494C19.8696 30.4546 19.8598 30.4599 19.85 30.4653C18.8004 31.0517 16.9422 31.0706 15.8488 30.465C15.458 30.2463 15.0131 30.0738 14.5335 29.9486C15.2591 26.1121 18.7853 23.1925 23.0132 23.1925ZM23.0132 39.6294C18.5543 39.6294 14.8758 36.3822 14.4402 32.237C14.5573 32.2876 14.6214 32.3205 14.687 32.3571C16.4502 33.3426 19.2075 33.3481 20.9825 32.3735C20.9929 32.3681 21.0032 32.3625 21.0135 32.3568C22.0787 31.7606 23.9481 31.7607 25.0144 32.3571C26.8738 33.3964 29.7011 33.3144 31.3577 32.3468C31.4292 32.3075 31.5066 32.2714 31.5866 32.2368C31.1591 36.3782 27.4946 39.6294 23.0132 39.6294Z" fill="#3A70DD"/>
</svg>
