<svg width="16" height="14" viewBox="0 0 16 14" fill="none" xmlns="http://www.w3.org/2000/svg">
<path fill-rule="evenodd" clip-rule="evenodd" d="M0 2.14287C0 1.68821 0.180612 1.25218 0.502102 0.930689C0.823594 0.609199 1.25963 0.428589 1.71428 0.428589H14.2857C14.7404 0.428589 15.1764 0.609199 15.4979 0.930689C15.8194 1.25218 16 1.68821 16 2.14287V2.53373L8.43772 7.57602C8.30571 7.65546 8.15404 7.69624 8 7.69373C7.84596 7.69624 7.69429 7.65546 7.56228 7.57602L0 2.53373L0 2.14287ZM0 4.2503L0 11.8572C0 12.3118 0.180612 12.7478 0.502102 13.0693C0.823594 13.3908 1.25963 13.5715 1.71428 13.5715H14.2857C14.7404 13.5715 15.1764 13.3908 15.4979 13.0693C15.8194 12.7478 16 12.3118 16 11.8572V4.2503L9.22631 8.76685L9.22053 8.77148C8.85592 9.00331 8.43213 9.12521 8 9.12231C7.57143 9.12231 7.13943 9.00571 6.77943 8.77148L6.77372 8.76685L0 4.2503Z" fill="#28292C"/>
</svg>
