<svg width="24" height="24" viewBox="0 0 24 24" fill="none" xmlns="http://www.w3.org/2000/svg">
<path d="M13.5 14.25C13.5 14.0511 13.579 13.8603 13.7197 13.7197C13.8603 13.579 14.0511 13.5 14.25 13.5H17.25C17.4489 13.5 17.6397 13.579 17.7803 13.7197C17.921 13.8603 18 14.0511 18 14.25V17.25C18 17.4489 17.921 17.6397 17.7803 17.7803C17.6397 17.921 17.4489 18 17.25 18H14.25C14.0511 18 13.8603 17.921 13.7197 17.7803C13.579 17.6397 13.5 17.4489 13.5 17.25V14.25ZM15 16.5H16.5V15H15V16.5ZM6.282 1.665L2.532 4.665C2.283 4.863 2.25 5.205 2.25 5.505V8.25C2.25 9.0945 2.529 9.873 3 10.5V21.75C3 21.9489 3.07902 22.1397 3.21967 22.2803C3.36032 22.421 3.55109 22.5 3.75 22.5H20.25C20.4489 22.5 20.6397 22.421 20.7803 22.2803C20.921 22.1397 21 21.9489 21 21.75V10.5C21.471 9.873 21.75 9.0945 21.75 8.25V5.499C21.75 5.199 21.717 4.863 21.468 4.665L17.718 1.665C17.5852 1.55849 17.4202 1.5003 17.25 1.5H6.75C6.5798 1.5003 6.41476 1.55849 6.282 1.665ZM8.25 6V8.25C8.25 8.84674 8.01295 9.41903 7.59099 9.84099C7.16903 10.2629 6.59674 10.5 6 10.5C5.40326 10.5 4.83097 10.2629 4.40901 9.84099C3.98705 9.41903 3.75 8.84674 3.75 8.25V6H8.25ZM14.25 6V8.25C14.25 8.84674 14.0129 9.41903 13.591 9.84099C13.169 10.2629 12.5967 10.5 12 10.5C11.4033 10.5 10.831 10.2629 10.409 9.84099C9.98705 9.41903 9.75 8.84674 9.75 8.25V6H14.25ZM20.25 6V8.25C20.25 8.84674 20.0129 9.41903 19.591 9.84099C19.169 10.2629 18.5967 10.5 18 10.5C17.4033 10.5 16.831 10.2629 16.409 9.84099C15.9871 9.41903 15.75 8.84674 15.75 8.25V6H20.25ZM9.0435 3L8.481 4.5H5.1375L7.0125 3H9.045H9.0435ZM10.083 4.5L10.6455 3H13.335L13.8345 4.5H10.083ZM14.916 3H16.986L18.861 4.5H15.4155L14.916 3ZM19.5 11.688V21H12V14.25C12 14.0511 11.921 13.8603 11.7803 13.7197C11.6397 13.579 11.4489 13.5 11.25 13.5H6.75C6.55109 13.5 6.36032 13.579 6.21967 13.7197C6.07902 13.8603 6 14.0511 6 14.25V21H4.5V11.688C5.27408 12.0268 6.14002 12.0939 6.95702 11.8782C7.77403 11.6625 8.49404 11.1768 9 10.5C9.684 11.4105 10.773 12 12 12C13.227 12 14.316 11.4105 15 10.5C15.506 11.1768 16.226 11.6625 17.043 11.8782C17.86 12.0939 18.7259 12.0268 19.5 11.688ZM10.5 21H7.5V15H10.5V21Z" fill="black"/>
</svg>
