<svg width="25" height="16" viewBox="0 0 25 16" fill="none" xmlns="http://www.w3.org/2000/svg">
<path fill-rule="evenodd" clip-rule="evenodd" d="M0 1.2C0 0.88174 0.123465 0.576515 0.343234 0.351472C0.563003 0.126428 0.861074 0 1.17188 0H23.8281C24.1389 0 24.437 0.126428 24.6568 0.351472C24.8765 0.576515 25 0.88174 25 1.2C25 1.51826 24.8765 1.82348 24.6568 2.04853C24.437 2.27357 24.1389 2.4 23.8281 2.4H1.17188C0.861074 2.4 0.563003 2.27357 0.343234 2.04853C0.123465 1.82348 0 1.51826 0 1.2ZM0 8C0 7.68174 0.123465 7.37652 0.343234 7.15147C0.563003 6.92643 0.861074 6.8 1.17188 6.8H23.8281C24.1389 6.8 24.437 6.92643 24.6568 7.15147C24.8765 7.37652 25 7.68174 25 8C25 8.31826 24.8765 8.62348 24.6568 8.84853C24.437 9.07357 24.1389 9.2 23.8281 9.2H1.17188C0.861074 9.2 0.563003 9.07357 0.343234 8.84853C0.123465 8.62348 0 8.31826 0 8ZM1.17188 13.6C0.861074 13.6 0.563003 13.7264 0.343234 13.9515C0.123465 14.1765 0 14.4817 0 14.8C0 15.1183 0.123465 15.4235 0.343234 15.6485C0.563003 15.8736 0.861074 16 1.17188 16H23.8281C24.1389 16 24.437 15.8736 24.6568 15.6485C24.8765 15.4235 25 15.1183 25 14.8C25 14.4817 24.8765 14.1765 24.6568 13.9515C24.437 13.7264 24.1389 13.6 23.8281 13.6H1.17188Z" fill="#3A70DD"/>
</svg>
