<svg width="18" height="17" viewBox="0 0 18 17" fill="none" xmlns="http://www.w3.org/2000/svg">
<path d="M9.35989 0C3.57989 0 -0.356112 5.857 1.82389 11.21L2.75689 13.498C2.79763 13.5978 2.80504 13.7081 2.77801 13.8124C2.75098 13.9167 2.69096 14.0095 2.60689 14.077L0.633888 15.66C0.553113 15.7248 0.494452 15.8131 0.466008 15.9127C0.437564 16.0122 0.44074 16.1182 0.475097 16.2159C0.509454 16.3136 0.573297 16.3982 0.657808 16.458C0.74232 16.5179 0.84333 16.55 0.946888 16.55H8.76689C9.91367 16.5501 11.0493 16.3244 12.1088 15.8856C13.1683 15.4468 14.131 14.8037 14.942 13.9928C15.7529 13.182 16.3962 12.2193 16.8351 11.1598C17.274 10.1003 17.4999 8.96479 17.4999 7.818C17.4999 3.5 13.9999 0 9.68189 0H9.36089H9.35989Z" fill="#3A70DD"/>
</svg>
