<svg width="361" height="60" viewBox="0 0 361 60" fill="none" xmlns="http://www.w3.org/2000/svg">
<rect width="361" height="60" rx="10" fill="#3A70DD"/>
<circle opacity="0.5" cx="32" cy="30" r="20" fill="white"/>
<circle opacity="0.8" cx="32" cy="30" r="12" fill="#3A70DD"/>
<path d="M70.08 15.88V27H68.256V22.136H63.024V27H61.2V15.88H63.024V20.648H68.256V15.88H70.08ZM76.3053 27.144C75.4733 27.144 74.7213 26.9573 74.0493 26.584C73.3773 26.2 72.8493 25.6667 72.4653 24.984C72.0813 24.2907 71.8893 23.4907 71.8893 22.584C71.8893 21.688 72.0866 20.8933 72.4813 20.2C72.8759 19.5067 73.4146 18.9733 74.0973 18.6C74.7799 18.2267 75.5426 18.04 76.3853 18.04C77.2279 18.04 77.9906 18.2267 78.6733 18.6C79.3559 18.9733 79.8946 19.5067 80.2893 20.2C80.6839 20.8933 80.8813 21.688 80.8813 22.584C80.8813 23.48 80.6786 24.2747 80.2733 24.968C79.8679 25.6613 79.3133 26.2 78.6093 26.584C77.9159 26.9573 77.1479 27.144 76.3053 27.144ZM76.3053 25.56C76.7746 25.56 77.2119 25.448 77.6173 25.224C78.0333 25 78.3693 24.664 78.6253 24.216C78.8813 23.768 79.0093 23.224 79.0093 22.584C79.0093 21.944 78.8866 21.4053 78.6413 20.968C78.3959 20.52 78.0706 20.184 77.6653 19.96C77.2599 19.736 76.8226 19.624 76.3533 19.624C75.8839 19.624 75.4466 19.736 75.0413 19.96C74.6466 20.184 74.3319 20.52 74.0973 20.968C73.8626 21.4053 73.7453 21.944 73.7453 22.584C73.7453 23.5333 73.9853 24.2693 74.4653 24.792C74.9559 25.304 75.5693 25.56 76.3053 25.56ZM93.3564 18.04C94.0497 18.04 94.6684 18.184 95.2124 18.472C95.767 18.76 96.199 19.1867 96.5084 19.752C96.8284 20.3173 96.9884 21 96.9884 21.8V27H95.1804V22.072C95.1804 21.2827 94.983 20.68 94.5884 20.264C94.1937 19.8373 93.655 19.624 92.9724 19.624C92.2897 19.624 91.7457 19.8373 91.3404 20.264C90.9457 20.68 90.7484 21.2827 90.7484 22.072V27H88.9404V22.072C88.9404 21.2827 88.743 20.68 88.3484 20.264C87.9537 19.8373 87.415 19.624 86.7324 19.624C86.0497 19.624 85.5057 19.8373 85.1004 20.264C84.7057 20.68 84.5084 21.2827 84.5084 22.072V27H82.6844V18.184H84.5084V19.192C84.807 18.8293 85.1857 18.5467 85.6444 18.344C86.103 18.1413 86.5937 18.04 87.1164 18.04C87.8204 18.04 88.4497 18.1893 89.0044 18.488C89.559 18.7867 89.9857 19.2187 90.2844 19.784C90.551 19.2507 90.967 18.8293 91.5324 18.52C92.0977 18.2 92.7057 18.04 93.3564 18.04ZM107.389 22.376C107.389 22.7067 107.368 23.0053 107.325 23.272H100.589C100.643 23.976 100.904 24.5413 101.373 24.968C101.843 25.3947 102.419 25.608 103.101 25.608C104.083 25.608 104.776 25.1973 105.181 24.376H107.149C106.883 25.1867 106.397 25.8533 105.693 26.376C105 26.888 104.136 27.144 103.101 27.144C102.259 27.144 101.501 26.9573 100.829 26.584C100.168 26.2 99.6454 25.6667 99.2614 24.984C98.888 24.2907 98.7014 23.4907 98.7014 22.584C98.7014 21.6773 98.8827 20.8827 99.2454 20.2C99.6187 19.5067 100.136 18.9733 100.797 18.6C101.469 18.2267 102.237 18.04 103.101 18.04C103.933 18.04 104.675 18.2213 105.325 18.584C105.976 18.9467 106.483 19.4587 106.845 20.12C107.208 20.7707 107.389 21.5227 107.389 22.376ZM105.485 21.8C105.475 21.128 105.235 20.5893 104.765 20.184C104.296 19.7787 103.715 19.576 103.021 19.576C102.392 19.576 101.853 19.7787 101.405 20.184C100.957 20.5787 100.691 21.1173 100.605 21.8H105.485Z" fill="white"/>
<path d="M69.408 37.696V46H68.316V39.808L65.556 46H64.788L62.016 39.796V46H60.924V37.696H62.1L65.172 44.56L68.244 37.696H69.408ZM77.0919 39.424V46H75.9999V45.028C75.7919 45.364 75.4999 45.628 75.1239 45.82C74.7559 46.004 74.3479 46.096 73.8999 46.096C73.3879 46.096 72.9279 45.992 72.5199 45.784C72.1119 45.568 71.7879 45.248 71.5479 44.824C71.3159 44.4 71.1999 43.884 71.1999 43.276V39.424H72.2799V43.132C72.2799 43.78 72.4439 44.28 72.7719 44.632C73.0999 44.976 73.5479 45.148 74.1159 45.148C74.6999 45.148 75.1599 44.968 75.4959 44.608C75.8319 44.248 75.9999 43.724 75.9999 43.036V39.424H77.0919ZM87.6957 39.424L85.6437 46H84.5157L82.9317 40.78L81.3477 46H80.2197L78.1557 39.424H79.2717L80.7837 44.944L82.4157 39.424H83.5317L85.1277 44.956L86.6157 39.424H87.6957ZM88.3715 42.688C88.3715 42.016 88.5075 41.428 88.7795 40.924C89.0515 40.412 89.4235 40.016 89.8955 39.736C90.3755 39.456 90.9075 39.316 91.4915 39.316C92.0675 39.316 92.5675 39.44 92.9915 39.688C93.4155 39.936 93.7315 40.248 93.9395 40.624V39.424H95.0435V46H93.9395V44.776C93.7235 45.16 93.3995 45.48 92.9675 45.736C92.5435 45.984 92.0475 46.108 91.4795 46.108C90.8955 46.108 90.3675 45.964 89.8955 45.676C89.4235 45.388 89.0515 44.984 88.7795 44.464C88.5075 43.944 88.3715 43.352 88.3715 42.688ZM93.9395 42.7C93.9395 42.204 93.8395 41.772 93.6395 41.404C93.4395 41.036 93.1675 40.756 92.8235 40.564C92.4875 40.364 92.1155 40.264 91.7075 40.264C91.2995 40.264 90.9275 40.36 90.5915 40.552C90.2555 40.744 89.9875 41.024 89.7875 41.392C89.5875 41.76 89.4875 42.192 89.4875 42.688C89.4875 43.192 89.5875 43.632 89.7875 44.008C89.9875 44.376 90.2555 44.66 90.5915 44.86C90.9275 45.052 91.2995 45.148 91.7075 45.148C92.1155 45.148 92.4875 45.052 92.8235 44.86C93.1675 44.66 93.4395 44.376 93.6395 44.008C93.8395 43.632 93.9395 43.196 93.9395 42.7ZM97.4528 38.356C97.2448 38.356 97.0688 38.284 96.9248 38.14C96.7808 37.996 96.7088 37.82 96.7088 37.612C96.7088 37.404 96.7808 37.228 96.9248 37.084C97.0688 36.94 97.2448 36.868 97.4528 36.868C97.6528 36.868 97.8208 36.94 97.9568 37.084C98.1008 37.228 98.1728 37.404 98.1728 37.612C98.1728 37.82 98.1008 37.996 97.9568 38.14C97.8208 38.284 97.6528 38.356 97.4528 38.356ZM97.9808 39.424V46H96.8888V39.424H97.9808ZM100.934 37.12V46H99.842V37.12H100.934ZM108.795 42.46C108.795 42.668 108.783 42.888 108.759 43.12H103.503C103.543 43.768 103.763 44.276 104.163 44.644C104.571 45.004 105.063 45.184 105.639 45.184C106.111 45.184 106.503 45.076 106.815 44.86C107.135 44.636 107.359 44.34 107.487 43.972H108.663C108.487 44.604 108.135 45.12 107.607 45.52C107.079 45.912 106.423 46.108 105.639 46.108C105.015 46.108 104.455 45.968 103.959 45.688C103.471 45.408 103.087 45.012 102.807 44.5C102.527 43.98 102.387 43.38 102.387 42.7C102.387 42.02 102.523 41.424 102.795 40.912C103.067 40.4 103.447 40.008 103.935 39.736C104.431 39.456 104.999 39.316 105.639 39.316C106.263 39.316 106.815 39.452 107.295 39.724C107.775 39.996 108.143 40.372 108.399 40.852C108.663 41.324 108.795 41.86 108.795 42.46ZM107.667 42.232C107.667 41.816 107.575 41.46 107.391 41.164C107.207 40.86 106.955 40.632 106.635 40.48C106.323 40.32 105.975 40.24 105.591 40.24C105.039 40.24 104.567 40.416 104.175 40.768C103.791 41.12 103.571 41.608 103.515 42.232H107.667ZM113.501 39.304C113.997 39.304 114.445 39.412 114.845 39.628C115.245 39.836 115.557 40.152 115.781 40.576C116.013 41 116.129 41.516 116.129 42.124V46H115.049V42.28C115.049 41.624 114.885 41.124 114.557 40.78C114.229 40.428 113.781 40.252 113.213 40.252C112.637 40.252 112.177 40.432 111.833 40.792C111.497 41.152 111.329 41.676 111.329 42.364V46H110.237V37.12H111.329V40.36C111.545 40.024 111.841 39.764 112.217 39.58C112.601 39.396 113.029 39.304 113.501 39.304ZM126.704 40.084C126.704 40.78 126.464 41.36 125.984 41.824C125.512 42.28 124.788 42.508 123.812 42.508H122.204V46H121.112V37.636H123.812C124.756 37.636 125.472 37.864 125.96 38.32C126.456 38.776 126.704 39.364 126.704 40.084ZM123.812 41.608C124.42 41.608 124.868 41.476 125.156 41.212C125.444 40.948 125.588 40.572 125.588 40.084C125.588 39.052 124.996 38.536 123.812 38.536H122.204V41.608H123.812ZM127.653 42.688C127.653 42.016 127.789 41.428 128.061 40.924C128.333 40.412 128.705 40.016 129.177 39.736C129.657 39.456 130.189 39.316 130.773 39.316C131.349 39.316 131.849 39.44 132.273 39.688C132.697 39.936 133.013 40.248 133.221 40.624V39.424H134.325V46H133.221V44.776C133.005 45.16 132.681 45.48 132.249 45.736C131.825 45.984 131.329 46.108 130.761 46.108C130.177 46.108 129.649 45.964 129.177 45.676C128.705 45.388 128.333 44.984 128.061 44.464C127.789 43.944 127.653 43.352 127.653 42.688ZM133.221 42.7C133.221 42.204 133.121 41.772 132.921 41.404C132.721 41.036 132.449 40.756 132.105 40.564C131.769 40.364 131.397 40.264 130.989 40.264C130.581 40.264 130.209 40.36 129.873 40.552C129.537 40.744 129.269 41.024 129.069 41.392C128.869 41.76 128.769 42.192 128.769 42.688C128.769 43.192 128.869 43.632 129.069 44.008C129.269 44.376 129.537 44.66 129.873 44.86C130.209 45.052 130.581 45.148 130.989 45.148C131.397 45.148 131.769 45.052 132.105 44.86C132.449 44.66 132.721 44.376 132.921 44.008C133.121 43.632 133.221 43.196 133.221 42.7ZM137.262 40.492C137.454 40.116 137.726 39.824 138.078 39.616C138.438 39.408 138.874 39.304 139.386 39.304V40.432H139.098C137.874 40.432 137.262 41.096 137.262 42.424V46H136.17V39.424H137.262V40.492ZM144.319 46L141.739 43.096V46H140.647V37.12H141.739V42.34L144.271 39.424H145.795L142.699 42.7L145.807 46H144.319ZM147.95 44.488L146.606 47.716H145.874L146.75 44.488H147.95ZM155.053 46.084C154.501 46.084 154.005 45.988 153.565 45.796C153.133 45.596 152.793 45.324 152.545 44.98C152.297 44.628 152.169 44.224 152.161 43.768H153.325C153.365 44.16 153.525 44.492 153.805 44.764C154.093 45.028 154.509 45.16 155.053 45.16C155.573 45.16 155.981 45.032 156.277 44.776C156.581 44.512 156.733 44.176 156.733 43.768C156.733 43.448 156.645 43.188 156.469 42.988C156.293 42.788 156.073 42.636 155.809 42.532C155.545 42.428 155.189 42.316 154.741 42.196C154.189 42.052 153.745 41.908 153.409 41.764C153.081 41.62 152.797 41.396 152.557 41.092C152.325 40.78 152.209 40.364 152.209 39.844C152.209 39.388 152.325 38.984 152.557 38.632C152.789 38.28 153.113 38.008 153.529 37.816C153.953 37.624 154.437 37.528 154.981 37.528C155.765 37.528 156.405 37.724 156.901 38.116C157.405 38.508 157.689 39.028 157.753 39.676H156.553C156.513 39.356 156.345 39.076 156.049 38.836C155.753 38.588 155.361 38.464 154.873 38.464C154.417 38.464 154.045 38.584 153.757 38.824C153.469 39.056 153.325 39.384 153.325 39.808C153.325 40.112 153.409 40.36 153.577 40.552C153.753 40.744 153.965 40.892 154.213 40.996C154.469 41.092 154.825 41.204 155.281 41.332C155.833 41.484 156.277 41.636 156.613 41.788C156.949 41.932 157.237 42.16 157.477 42.472C157.717 42.776 157.837 43.192 157.837 43.72C157.837 44.128 157.729 44.512 157.513 44.872C157.297 45.232 156.977 45.524 156.553 45.748C156.129 45.972 155.629 46.084 155.053 46.084ZM162.708 39.304C163.204 39.304 163.652 39.412 164.052 39.628C164.452 39.836 164.764 40.152 164.988 40.576C165.22 41 165.336 41.516 165.336 42.124V46H164.256V42.28C164.256 41.624 164.092 41.124 163.764 40.78C163.436 40.428 162.988 40.252 162.42 40.252C161.844 40.252 161.384 40.432 161.04 40.792C160.704 41.152 160.536 41.676 160.536 42.364V46H159.444V37.12H160.536V40.36C160.752 40.024 161.048 39.764 161.424 39.58C161.808 39.396 162.236 39.304 162.708 39.304ZM166.711 42.688C166.711 42.016 166.847 41.428 167.119 40.924C167.391 40.412 167.763 40.016 168.235 39.736C168.715 39.456 169.247 39.316 169.831 39.316C170.407 39.316 170.907 39.44 171.331 39.688C171.755 39.936 172.071 40.248 172.279 40.624V39.424H173.383V46H172.279V44.776C172.063 45.16 171.739 45.48 171.307 45.736C170.883 45.984 170.387 46.108 169.819 46.108C169.235 46.108 168.707 45.964 168.235 45.676C167.763 45.388 167.391 44.984 167.119 44.464C166.847 43.944 166.711 43.352 166.711 42.688ZM172.279 42.7C172.279 42.204 172.179 41.772 171.979 41.404C171.779 41.036 171.507 40.756 171.163 40.564C170.827 40.364 170.455 40.264 170.047 40.264C169.639 40.264 169.267 40.36 168.931 40.552C168.595 40.744 168.327 41.024 168.127 41.392C167.927 41.76 167.827 42.192 167.827 42.688C167.827 43.192 167.927 43.632 168.127 44.008C168.327 44.376 168.595 44.66 168.931 44.86C169.267 45.052 169.639 45.148 170.047 45.148C170.455 45.148 170.827 45.052 171.163 44.86C171.507 44.66 171.779 44.376 171.979 44.008C172.179 43.632 172.279 43.196 172.279 42.7ZM176.321 40.492C176.513 40.116 176.785 39.824 177.137 39.616C177.497 39.408 177.933 39.304 178.445 39.304V40.432H178.157C176.933 40.432 176.321 41.096 176.321 42.424V46H175.229V39.424H176.321V40.492ZM180.293 38.356C180.085 38.356 179.909 38.284 179.765 38.14C179.629 37.996 179.561 37.82 179.561 37.612C179.561 37.404 179.629 37.228 179.765 37.084C179.909 36.94 180.085 36.868 180.293 36.868C180.501 36.868 180.673 36.94 180.809 37.084C180.953 37.228 181.025 37.404 181.025 37.612C181.025 37.82 180.953 37.996 180.809 38.14C180.673 38.284 180.501 38.356 180.293 38.356ZM180.833 47.428C180.833 48.012 180.685 48.44 180.389 48.712C180.093 48.984 179.661 49.12 179.093 49.12H178.457V48.196H178.913C179.217 48.196 179.429 48.136 179.549 48.016C179.677 47.896 179.741 47.692 179.741 47.404V39.424H180.833V47.428ZM182.274 42.688C182.274 42.016 182.41 41.428 182.682 40.924C182.954 40.412 183.326 40.016 183.798 39.736C184.278 39.456 184.81 39.316 185.394 39.316C185.97 39.316 186.47 39.44 186.894 39.688C187.318 39.936 187.634 40.248 187.842 40.624V39.424H188.946V46H187.842V44.776C187.626 45.16 187.302 45.48 186.87 45.736C186.446 45.984 185.95 46.108 185.382 46.108C184.798 46.108 184.27 45.964 183.798 45.676C183.326 45.388 182.954 44.984 182.682 44.464C182.41 43.944 182.274 43.352 182.274 42.688ZM187.842 42.7C187.842 42.204 187.742 41.772 187.542 41.404C187.342 41.036 187.07 40.756 186.726 40.564C186.39 40.364 186.018 40.264 185.61 40.264C185.202 40.264 184.83 40.36 184.494 40.552C184.158 40.744 183.89 41.024 183.69 41.392C183.49 41.76 183.39 42.192 183.39 42.688C183.39 43.192 183.49 43.632 183.69 44.008C183.89 44.376 184.158 44.66 184.494 44.86C184.83 45.052 185.202 45.148 185.61 45.148C186.018 45.148 186.39 45.052 186.726 44.86C187.07 44.66 187.342 44.376 187.542 44.008C187.742 43.632 187.842 43.196 187.842 42.7ZM194.055 39.304C194.551 39.304 194.999 39.412 195.399 39.628C195.799 39.836 196.111 40.152 196.335 40.576C196.567 41 196.683 41.516 196.683 42.124V46H195.603V42.28C195.603 41.624 195.439 41.124 195.111 40.78C194.783 40.428 194.335 40.252 193.767 40.252C193.191 40.252 192.731 40.432 192.387 40.792C192.051 41.152 191.883 41.676 191.883 42.364V46H190.791V37.12H191.883V40.36C192.099 40.024 192.395 39.764 192.771 39.58C193.155 39.396 193.583 39.304 194.055 39.304ZM199.595 44.488L198.251 47.716H197.519L198.395 44.488H199.595ZM205.113 37.636V42.928C205.113 43.672 205.293 44.224 205.653 44.584C206.021 44.944 206.529 45.124 207.177 45.124C207.817 45.124 208.317 44.944 208.677 44.584C209.045 44.224 209.229 43.672 209.229 42.928V37.636H210.321V42.916C210.321 43.612 210.181 44.2 209.901 44.68C209.621 45.152 209.241 45.504 208.761 45.736C208.289 45.968 207.757 46.084 207.165 46.084C206.573 46.084 206.037 45.968 205.557 45.736C205.085 45.504 204.709 45.152 204.429 44.68C204.157 44.2 204.021 43.612 204.021 42.916V37.636H205.113ZM217.087 44.14H213.439L212.767 46H211.615L214.639 37.684H215.899L218.911 46H217.759L217.087 44.14ZM216.775 43.252L215.263 39.028L213.751 43.252H216.775ZM221.321 38.524V41.32H224.369V42.22H221.321V45.1H224.729V46H220.229V37.624H224.729V38.524H221.321Z" fill="#E2E5F4"/>
<path d="M28.0635 28.8188L34.8652 25.5801C35.8568 25.1076 36.8917 26.143 36.4197 27.1353L33.1811 33.9363C32.7383 34.8656 31.3967 34.8084 31.035 33.8442L30.4365 32.2464C30.378 32.0905 30.2868 31.949 30.1691 31.8313C30.0514 31.7136 29.9099 31.6224 29.754 31.5639L28.1557 30.9648C27.192 30.6032 27.1342 29.2615 28.0635 28.8188Z" fill="white" stroke="white" stroke-linecap="round" stroke-linejoin="round"/>
</svg>
