<svg width="361" height="60" viewBox="0 0 361 60" fill="none" xmlns="http://www.w3.org/2000/svg">
<rect width="361" height="60" rx="10" fill="#3A70DD"/>
<circle cx="32" cy="30" r="20" fill="white"/>
<circle cx="32" cy="30" r="12" fill="#3A70DD"/>
<path d="M70.08 19.88V31H68.256V26.136H63.024V31H61.2V19.88H63.024V24.648H68.256V19.88H70.08ZM76.3053 31.144C75.4733 31.144 74.7213 30.9573 74.0493 30.584C73.3773 30.2 72.8493 29.6667 72.4653 28.984C72.0813 28.2907 71.8893 27.4907 71.8893 26.584C71.8893 25.688 72.0866 24.8933 72.4813 24.2C72.8759 23.5067 73.4146 22.9733 74.0973 22.6C74.7799 22.2267 75.5426 22.04 76.3853 22.04C77.2279 22.04 77.9906 22.2267 78.6733 22.6C79.3559 22.9733 79.8946 23.5067 80.2893 24.2C80.6839 24.8933 80.8813 25.688 80.8813 26.584C80.8813 27.48 80.6786 28.2747 80.2733 28.968C79.8679 29.6613 79.3133 30.2 78.6093 30.584C77.9159 30.9573 77.1479 31.144 76.3053 31.144ZM76.3053 29.56C76.7746 29.56 77.2119 29.448 77.6173 29.224C78.0333 29 78.3693 28.664 78.6253 28.216C78.8813 27.768 79.0093 27.224 79.0093 26.584C79.0093 25.944 78.8866 25.4053 78.6413 24.968C78.3959 24.52 78.0706 24.184 77.6653 23.96C77.2599 23.736 76.8226 23.624 76.3533 23.624C75.8839 23.624 75.4466 23.736 75.0413 23.96C74.6466 24.184 74.3319 24.52 74.0973 24.968C73.8626 25.4053 73.7453 25.944 73.7453 26.584C73.7453 27.5333 73.9853 28.2693 74.4653 28.792C74.9559 29.304 75.5693 29.56 76.3053 29.56ZM93.3564 22.04C94.0497 22.04 94.6684 22.184 95.2124 22.472C95.767 22.76 96.199 23.1867 96.5084 23.752C96.8284 24.3173 96.9884 25 96.9884 25.8V31H95.1804V26.072C95.1804 25.2827 94.983 24.68 94.5884 24.264C94.1937 23.8373 93.655 23.624 92.9724 23.624C92.2897 23.624 91.7457 23.8373 91.3404 24.264C90.9457 24.68 90.7484 25.2827 90.7484 26.072V31H88.9404V26.072C88.9404 25.2827 88.743 24.68 88.3484 24.264C87.9537 23.8373 87.415 23.624 86.7324 23.624C86.0497 23.624 85.5057 23.8373 85.1004 24.264C84.7057 24.68 84.5084 25.2827 84.5084 26.072V31H82.6844V22.184H84.5084V23.192C84.807 22.8293 85.1857 22.5467 85.6444 22.344C86.103 22.1413 86.5937 22.04 87.1164 22.04C87.8204 22.04 88.4497 22.1893 89.0044 22.488C89.559 22.7867 89.9857 23.2187 90.2844 23.784C90.551 23.2507 90.967 22.8293 91.5324 22.52C92.0977 22.2 92.7057 22.04 93.3564 22.04ZM107.389 26.376C107.389 26.7067 107.368 27.0053 107.325 27.272H100.589C100.643 27.976 100.904 28.5413 101.373 28.968C101.843 29.3947 102.419 29.608 103.101 29.608C104.083 29.608 104.776 29.1973 105.181 28.376H107.149C106.883 29.1867 106.397 29.8533 105.693 30.376C105 30.888 104.136 31.144 103.101 31.144C102.259 31.144 101.501 30.9573 100.829 30.584C100.168 30.2 99.6454 29.6667 99.2614 28.984C98.888 28.2907 98.7014 27.4907 98.7014 26.584C98.7014 25.6773 98.8827 24.8827 99.2454 24.2C99.6187 23.5067 100.136 22.9733 100.797 22.6C101.469 22.2267 102.237 22.04 103.101 22.04C103.933 22.04 104.675 22.2213 105.325 22.584C105.976 22.9467 106.483 23.4587 106.845 24.12C107.208 24.7707 107.389 25.5227 107.389 26.376ZM105.485 25.8C105.475 25.128 105.235 24.5893 104.765 24.184C104.296 23.7787 103.715 23.576 103.021 23.576C102.392 23.576 101.853 23.7787 101.405 24.184C100.957 24.5787 100.691 25.1173 100.605 25.8H105.485Z" fill="white"/>
<path d="M69.408 41.696V50H68.316V43.808L65.556 50H64.788L62.016 43.796V50H60.924V41.696H62.1L65.172 48.56L68.244 41.696H69.408ZM77.0919 43.424V50H75.9999V49.028C75.7919 49.364 75.4999 49.628 75.1239 49.82C74.7559 50.004 74.3479 50.096 73.8999 50.096C73.3879 50.096 72.9279 49.992 72.5199 49.784C72.1119 49.568 71.7879 49.248 71.5479 48.824C71.3159 48.4 71.1999 47.884 71.1999 47.276V43.424H72.2799V47.132C72.2799 47.78 72.4439 48.28 72.7719 48.632C73.0999 48.976 73.5479 49.148 74.1159 49.148C74.6999 49.148 75.1599 48.968 75.4959 48.608C75.8319 48.248 75.9999 47.724 75.9999 47.036V43.424H77.0919ZM87.6957 43.424L85.6437 50H84.5157L82.9317 44.78L81.3477 50H80.2197L78.1557 43.424H79.2717L80.7837 48.944L82.4157 43.424H83.5317L85.1277 48.956L86.6157 43.424H87.6957ZM88.3715 46.688C88.3715 46.016 88.5075 45.428 88.7795 44.924C89.0515 44.412 89.4235 44.016 89.8955 43.736C90.3755 43.456 90.9075 43.316 91.4915 43.316C92.0675 43.316 92.5675 43.44 92.9915 43.688C93.4155 43.936 93.7315 44.248 93.9395 44.624V43.424H95.0435V50H93.9395V48.776C93.7235 49.16 93.3995 49.48 92.9675 49.736C92.5435 49.984 92.0475 50.108 91.4795 50.108C90.8955 50.108 90.3675 49.964 89.8955 49.676C89.4235 49.388 89.0515 48.984 88.7795 48.464C88.5075 47.944 88.3715 47.352 88.3715 46.688ZM93.9395 46.7C93.9395 46.204 93.8395 45.772 93.6395 45.404C93.4395 45.036 93.1675 44.756 92.8235 44.564C92.4875 44.364 92.1155 44.264 91.7075 44.264C91.2995 44.264 90.9275 44.36 90.5915 44.552C90.2555 44.744 89.9875 45.024 89.7875 45.392C89.5875 45.76 89.4875 46.192 89.4875 46.688C89.4875 47.192 89.5875 47.632 89.7875 48.008C89.9875 48.376 90.2555 48.66 90.5915 48.86C90.9275 49.052 91.2995 49.148 91.7075 49.148C92.1155 49.148 92.4875 49.052 92.8235 48.86C93.1675 48.66 93.4395 48.376 93.6395 48.008C93.8395 47.632 93.9395 47.196 93.9395 46.7ZM97.4528 42.356C97.2448 42.356 97.0688 42.284 96.9248 42.14C96.7808 41.996 96.7088 41.82 96.7088 41.612C96.7088 41.404 96.7808 41.228 96.9248 41.084C97.0688 40.94 97.2448 40.868 97.4528 40.868C97.6528 40.868 97.8208 40.94 97.9568 41.084C98.1008 41.228 98.1728 41.404 98.1728 41.612C98.1728 41.82 98.1008 41.996 97.9568 42.14C97.8208 42.284 97.6528 42.356 97.4528 42.356ZM97.9808 43.424V50H96.8888V43.424H97.9808ZM100.934 41.12V50H99.842V41.12H100.934ZM108.795 46.46C108.795 46.668 108.783 46.888 108.759 47.12H103.503C103.543 47.768 103.763 48.276 104.163 48.644C104.571 49.004 105.063 49.184 105.639 49.184C106.111 49.184 106.503 49.076 106.815 48.86C107.135 48.636 107.359 48.34 107.487 47.972H108.663C108.487 48.604 108.135 49.12 107.607 49.52C107.079 49.912 106.423 50.108 105.639 50.108C105.015 50.108 104.455 49.968 103.959 49.688C103.471 49.408 103.087 49.012 102.807 48.5C102.527 47.98 102.387 47.38 102.387 46.7C102.387 46.02 102.523 45.424 102.795 44.912C103.067 44.4 103.447 44.008 103.935 43.736C104.431 43.456 104.999 43.316 105.639 43.316C106.263 43.316 106.815 43.452 107.295 43.724C107.775 43.996 108.143 44.372 108.399 44.852C108.663 45.324 108.795 45.86 108.795 46.46ZM107.667 46.232C107.667 45.816 107.575 45.46 107.391 45.164C107.207 44.86 106.955 44.632 106.635 44.48C106.323 44.32 105.975 44.24 105.591 44.24C105.039 44.24 104.567 44.416 104.175 44.768C103.791 45.12 103.571 45.608 103.515 46.232H107.667ZM113.501 43.304C113.997 43.304 114.445 43.412 114.845 43.628C115.245 43.836 115.557 44.152 115.781 44.576C116.013 45 116.129 45.516 116.129 46.124V50H115.049V46.28C115.049 45.624 114.885 45.124 114.557 44.78C114.229 44.428 113.781 44.252 113.213 44.252C112.637 44.252 112.177 44.432 111.833 44.792C111.497 45.152 111.329 45.676 111.329 46.364V50H110.237V41.12H111.329V44.36C111.545 44.024 111.841 43.764 112.217 43.58C112.601 43.396 113.029 43.304 113.501 43.304ZM126.704 44.084C126.704 44.78 126.464 45.36 125.984 45.824C125.512 46.28 124.788 46.508 123.812 46.508H122.204V50H121.112V41.636H123.812C124.756 41.636 125.472 41.864 125.96 42.32C126.456 42.776 126.704 43.364 126.704 44.084ZM123.812 45.608C124.42 45.608 124.868 45.476 125.156 45.212C125.444 44.948 125.588 44.572 125.588 44.084C125.588 43.052 124.996 42.536 123.812 42.536H122.204V45.608H123.812ZM127.653 46.688C127.653 46.016 127.789 45.428 128.061 44.924C128.333 44.412 128.705 44.016 129.177 43.736C129.657 43.456 130.189 43.316 130.773 43.316C131.349 43.316 131.849 43.44 132.273 43.688C132.697 43.936 133.013 44.248 133.221 44.624V43.424H134.325V50H133.221V48.776C133.005 49.16 132.681 49.48 132.249 49.736C131.825 49.984 131.329 50.108 130.761 50.108C130.177 50.108 129.649 49.964 129.177 49.676C128.705 49.388 128.333 48.984 128.061 48.464C127.789 47.944 127.653 47.352 127.653 46.688ZM133.221 46.7C133.221 46.204 133.121 45.772 132.921 45.404C132.721 45.036 132.449 44.756 132.105 44.564C131.769 44.364 131.397 44.264 130.989 44.264C130.581 44.264 130.209 44.36 129.873 44.552C129.537 44.744 129.269 45.024 129.069 45.392C128.869 45.76 128.769 46.192 128.769 46.688C128.769 47.192 128.869 47.632 129.069 48.008C129.269 48.376 129.537 48.66 129.873 48.86C130.209 49.052 130.581 49.148 130.989 49.148C131.397 49.148 131.769 49.052 132.105 48.86C132.449 48.66 132.721 48.376 132.921 48.008C133.121 47.632 133.221 47.196 133.221 46.7ZM137.262 44.492C137.454 44.116 137.726 43.824 138.078 43.616C138.438 43.408 138.874 43.304 139.386 43.304V44.432H139.098C137.874 44.432 137.262 45.096 137.262 46.424V50H136.17V43.424H137.262V44.492ZM144.319 50L141.739 47.096V50H140.647V41.12H141.739V46.34L144.271 43.424H145.795L142.699 46.7L145.807 50H144.319ZM147.95 48.488L146.606 51.716H145.874L146.75 48.488H147.95ZM155.053 50.084C154.501 50.084 154.005 49.988 153.565 49.796C153.133 49.596 152.793 49.324 152.545 48.98C152.297 48.628 152.169 48.224 152.161 47.768H153.325C153.365 48.16 153.525 48.492 153.805 48.764C154.093 49.028 154.509 49.16 155.053 49.16C155.573 49.16 155.981 49.032 156.277 48.776C156.581 48.512 156.733 48.176 156.733 47.768C156.733 47.448 156.645 47.188 156.469 46.988C156.293 46.788 156.073 46.636 155.809 46.532C155.545 46.428 155.189 46.316 154.741 46.196C154.189 46.052 153.745 45.908 153.409 45.764C153.081 45.62 152.797 45.396 152.557 45.092C152.325 44.78 152.209 44.364 152.209 43.844C152.209 43.388 152.325 42.984 152.557 42.632C152.789 42.28 153.113 42.008 153.529 41.816C153.953 41.624 154.437 41.528 154.981 41.528C155.765 41.528 156.405 41.724 156.901 42.116C157.405 42.508 157.689 43.028 157.753 43.676H156.553C156.513 43.356 156.345 43.076 156.049 42.836C155.753 42.588 155.361 42.464 154.873 42.464C154.417 42.464 154.045 42.584 153.757 42.824C153.469 43.056 153.325 43.384 153.325 43.808C153.325 44.112 153.409 44.36 153.577 44.552C153.753 44.744 153.965 44.892 154.213 44.996C154.469 45.092 154.825 45.204 155.281 45.332C155.833 45.484 156.277 45.636 156.613 45.788C156.949 45.932 157.237 46.16 157.477 46.472C157.717 46.776 157.837 47.192 157.837 47.72C157.837 48.128 157.729 48.512 157.513 48.872C157.297 49.232 156.977 49.524 156.553 49.748C156.129 49.972 155.629 50.084 155.053 50.084ZM162.708 43.304C163.204 43.304 163.652 43.412 164.052 43.628C164.452 43.836 164.764 44.152 164.988 44.576C165.22 45 165.336 45.516 165.336 46.124V50H164.256V46.28C164.256 45.624 164.092 45.124 163.764 44.78C163.436 44.428 162.988 44.252 162.42 44.252C161.844 44.252 161.384 44.432 161.04 44.792C160.704 45.152 160.536 45.676 160.536 46.364V50H159.444V41.12H160.536V44.36C160.752 44.024 161.048 43.764 161.424 43.58C161.808 43.396 162.236 43.304 162.708 43.304ZM166.711 46.688C166.711 46.016 166.847 45.428 167.119 44.924C167.391 44.412 167.763 44.016 168.235 43.736C168.715 43.456 169.247 43.316 169.831 43.316C170.407 43.316 170.907 43.44 171.331 43.688C171.755 43.936 172.071 44.248 172.279 44.624V43.424H173.383V50H172.279V48.776C172.063 49.16 171.739 49.48 171.307 49.736C170.883 49.984 170.387 50.108 169.819 50.108C169.235 50.108 168.707 49.964 168.235 49.676C167.763 49.388 167.391 48.984 167.119 48.464C166.847 47.944 166.711 47.352 166.711 46.688ZM172.279 46.7C172.279 46.204 172.179 45.772 171.979 45.404C171.779 45.036 171.507 44.756 171.163 44.564C170.827 44.364 170.455 44.264 170.047 44.264C169.639 44.264 169.267 44.36 168.931 44.552C168.595 44.744 168.327 45.024 168.127 45.392C167.927 45.76 167.827 46.192 167.827 46.688C167.827 47.192 167.927 47.632 168.127 48.008C168.327 48.376 168.595 48.66 168.931 48.86C169.267 49.052 169.639 49.148 170.047 49.148C170.455 49.148 170.827 49.052 171.163 48.86C171.507 48.66 171.779 48.376 171.979 48.008C172.179 47.632 172.279 47.196 172.279 46.7ZM176.321 44.492C176.513 44.116 176.785 43.824 177.137 43.616C177.497 43.408 177.933 43.304 178.445 43.304V44.432H178.157C176.933 44.432 176.321 45.096 176.321 46.424V50H175.229V43.424H176.321V44.492ZM180.293 42.356C180.085 42.356 179.909 42.284 179.765 42.14C179.629 41.996 179.561 41.82 179.561 41.612C179.561 41.404 179.629 41.228 179.765 41.084C179.909 40.94 180.085 40.868 180.293 40.868C180.501 40.868 180.673 40.94 180.809 41.084C180.953 41.228 181.025 41.404 181.025 41.612C181.025 41.82 180.953 41.996 180.809 42.14C180.673 42.284 180.501 42.356 180.293 42.356ZM180.833 51.428C180.833 52.012 180.685 52.44 180.389 52.712C180.093 52.984 179.661 53.12 179.093 53.12H178.457V52.196H178.913C179.217 52.196 179.429 52.136 179.549 52.016C179.677 51.896 179.741 51.692 179.741 51.404V43.424H180.833V51.428ZM182.274 46.688C182.274 46.016 182.41 45.428 182.682 44.924C182.954 44.412 183.326 44.016 183.798 43.736C184.278 43.456 184.81 43.316 185.394 43.316C185.97 43.316 186.47 43.44 186.894 43.688C187.318 43.936 187.634 44.248 187.842 44.624V43.424H188.946V50H187.842V48.776C187.626 49.16 187.302 49.48 186.87 49.736C186.446 49.984 185.95 50.108 185.382 50.108C184.798 50.108 184.27 49.964 183.798 49.676C183.326 49.388 182.954 48.984 182.682 48.464C182.41 47.944 182.274 47.352 182.274 46.688ZM187.842 46.7C187.842 46.204 187.742 45.772 187.542 45.404C187.342 45.036 187.07 44.756 186.726 44.564C186.39 44.364 186.018 44.264 185.61 44.264C185.202 44.264 184.83 44.36 184.494 44.552C184.158 44.744 183.89 45.024 183.69 45.392C183.49 45.76 183.39 46.192 183.39 46.688C183.39 47.192 183.49 47.632 183.69 48.008C183.89 48.376 184.158 48.66 184.494 48.86C184.83 49.052 185.202 49.148 185.61 49.148C186.018 49.148 186.39 49.052 186.726 48.86C187.07 48.66 187.342 48.376 187.542 48.008C187.742 47.632 187.842 47.196 187.842 46.7ZM194.055 43.304C194.551 43.304 194.999 43.412 195.399 43.628C195.799 43.836 196.111 44.152 196.335 44.576C196.567 45 196.683 45.516 196.683 46.124V50H195.603V46.28C195.603 45.624 195.439 45.124 195.111 44.78C194.783 44.428 194.335 44.252 193.767 44.252C193.191 44.252 192.731 44.432 192.387 44.792C192.051 45.152 191.883 45.676 191.883 46.364V50H190.791V41.12H191.883V44.36C192.099 44.024 192.395 43.764 192.771 43.58C193.155 43.396 193.583 43.304 194.055 43.304ZM199.595 48.488L198.251 51.716H197.519L198.395 48.488H199.595ZM205.113 41.636V46.928C205.113 47.672 205.293 48.224 205.653 48.584C206.021 48.944 206.529 49.124 207.177 49.124C207.817 49.124 208.317 48.944 208.677 48.584C209.045 48.224 209.229 47.672 209.229 46.928V41.636H210.321V46.916C210.321 47.612 210.181 48.2 209.901 48.68C209.621 49.152 209.241 49.504 208.761 49.736C208.289 49.968 207.757 50.084 207.165 50.084C206.573 50.084 206.037 49.968 205.557 49.736C205.085 49.504 204.709 49.152 204.429 48.68C204.157 48.2 204.021 47.612 204.021 46.916V41.636H205.113ZM217.087 48.14H213.439L212.767 50H211.615L214.639 41.684H215.899L218.911 50H217.759L217.087 48.14ZM216.775 47.252L215.263 43.028L213.751 47.252H216.775ZM221.321 42.524V45.32H224.369V46.22H221.321V49.1H224.729V50H220.229V41.624H224.729V42.524H221.321Z" fill="#E2E5F4"/>
<path d="M28.0637 28.8188L34.8654 25.5801C35.8571 25.1076 36.8919 26.143 36.42 27.1353L33.1813 33.9363C32.7386 34.8656 31.3969 34.8084 31.0352 33.8442L30.4367 32.2464C30.3783 32.0905 30.2871 31.949 30.1694 31.8313C30.0517 31.7136 29.9101 31.6224 29.7542 31.5639L28.1559 30.9648C27.1922 30.6032 27.1345 29.2615 28.0637 28.8188Z" fill="white" stroke="white" stroke-linecap="round" stroke-linejoin="round"/>
</svg>
