<svg width="22" height="23" viewBox="0 0 22 23" fill="none" xmlns="http://www.w3.org/2000/svg">
<path d="M0.469375 11.8547C0.468859 13.7175 0.955609 15.5365 1.88116 17.1398L0.380859 22.6176L5.98673 21.1477C7.53725 21.9918 9.27448 22.4341 11.0399 22.4342H11.0445C16.8724 22.4342 21.6164 17.6919 21.6188 11.863C21.62 9.03851 20.521 6.38253 18.5243 4.38431C16.528 2.38626 13.873 1.28531 11.0441 1.28403C5.21553 1.28403 0.471867 6.02606 0.469461 11.8547" fill="url(#paint0_linear_738_90)"/>
<path d="M0.0919531 11.8512C0.0913516 13.7811 0.595547 15.6651 1.55409 17.3258L0 23L5.80688 21.4774C7.40687 22.3498 9.20829 22.8097 11.0413 22.8104H11.0461C17.083 22.8104 21.9974 17.8975 22 11.86C22.001 8.93401 20.8625 6.18255 18.7945 4.11274C16.7263 2.0432 13.9763 0.902633 11.0461 0.90143C5.00809 0.90143 0.0943594 5.81362 0.0919531 11.8512ZM3.55016 17.0398L3.33334 16.6956C2.42189 15.2464 1.94081 13.5716 1.9415 11.8519C1.94339 6.83361 6.02748 2.75081 11.0495 2.75081C13.4815 2.75184 15.7671 3.6999 17.4862 5.42002C19.2052 7.14032 20.1511 9.42712 20.1505 11.8593C20.1483 16.8776 16.0641 20.961 11.0461 20.961H11.0425C9.40852 20.9601 7.80605 20.5213 6.40853 19.6921L6.07595 19.4949L2.63003 20.3983L3.55016 17.0398Z" fill="url(#paint1_linear_738_90)"/>
<path d="M8.30818 7.27353C8.10314 6.8178 7.88735 6.8086 7.69236 6.80061C7.53268 6.79374 7.35015 6.79425 7.16779 6.79425C6.98526 6.79425 6.68869 6.86292 6.43801 7.13663C6.18707 7.4106 5.47998 8.07266 5.47998 9.41921C5.47998 10.7658 6.46079 12.0672 6.59751 12.25C6.73441 12.4324 8.49097 15.2842 11.2729 16.3813C13.585 17.293 14.0555 17.1116 14.5573 17.0659C15.0592 17.0204 16.1767 16.404 16.4047 15.7649C16.6329 15.1259 16.6329 14.5781 16.5645 14.4637C16.4961 14.3496 16.3135 14.2811 16.0398 14.1443C15.7661 14.0075 14.4204 13.3453 14.1695 13.2539C13.9186 13.1627 13.7362 13.1171 13.5536 13.3912C13.3711 13.6648 12.847 14.2811 12.6872 14.4637C12.5276 14.6466 12.3679 14.6694 12.0942 14.5325C11.8204 14.3952 10.9389 14.1065 9.89313 13.1742C9.07947 12.4487 8.53016 11.5528 8.37049 11.2787C8.21082 11.0051 8.35339 10.8568 8.49063 10.7204C8.61361 10.5978 8.76443 10.4008 8.90141 10.241C9.03788 10.0812 9.08343 9.96715 9.17469 9.78462C9.26604 9.60192 9.22032 9.44207 9.152 9.30517C9.08343 9.16828 8.55156 7.81467 8.30818 7.27353Z" fill="white"/>
<defs>
<linearGradient id="paint0_linear_738_90" x1="1062.28" y1="2134.64" x2="1062.28" y2="1.28403" gradientUnits="userSpaceOnUse">
<stop stop-color="#1FAF38"/>
<stop offset="1" stop-color="#60D669"/>
</linearGradient>
<linearGradient id="paint1_linear_738_90" x1="1100" y1="2210.76" x2="1100" y2="0.90143" gradientUnits="userSpaceOnUse">
<stop stop-color="#F9F9F9"/>
<stop offset="1" stop-color="white"/>
</linearGradient>
</defs>
</svg>
